<svg width="132" height="43" viewBox="0 0 132 43" fill="none" xmlns="http://www.w3.org/2000/svg">
<g clip-path="url(#clip0_0_527)">
<path fill-rule="evenodd" clip-rule="evenodd" d="M129.552 20.4034C129.271 20.4042 128.991 20.3493 128.731 20.2418C128.47 20.1344 128.234 19.9764 128.035 19.7771C127.835 19.5779 127.678 19.3412 127.57 19.0807C127.463 18.8202 127.409 18.5411 127.41 18.2594C127.41 17.0827 128.358 16.1028 129.565 16.1028C129.847 16.102 130.126 16.1569 130.386 16.2644C130.647 16.3719 130.883 16.5298 131.083 16.7291C131.282 16.9283 131.44 17.165 131.547 17.4255C131.654 17.686 131.709 17.9651 131.708 18.2468C131.708 18.8184 131.481 19.3666 131.076 19.771C130.672 20.1754 130.124 20.4028 129.552 20.4034ZM129.565 16.3164C129.31 16.3144 129.057 16.3634 128.821 16.4605C128.585 16.5576 128.37 16.7009 128.191 16.8819C128.011 17.0628 127.869 17.2779 127.773 17.5145C127.678 17.751 127.63 18.0043 127.634 18.2594C127.634 19.3272 128.459 20.1877 129.552 20.1877C129.807 20.1894 130.06 20.1403 130.296 20.0432C130.532 19.9461 130.746 19.8031 130.925 19.6224C131.105 19.4417 131.247 19.2269 131.343 18.9908C131.439 18.7546 131.487 18.5017 131.484 18.2468C131.487 17.9933 131.441 17.7415 131.346 17.5064C131.251 17.2712 131.11 17.0574 130.931 16.8775C130.752 16.6977 130.539 16.5553 130.305 16.459C130.07 16.3626 129.819 16.3141 129.565 16.3164ZM130.038 18.4667L130.646 19.3167H130.135L129.59 18.5379H129.119V19.3167H128.691V17.066H129.697C130.218 17.066 130.562 17.334 130.562 17.7841C130.562 18.1526 130.348 18.3787 130.038 18.4667ZM129.678 17.4512H129.119V18.1631H129.678C129.957 18.1631 130.122 18.027 130.122 17.8071C130.122 17.5768 129.954 17.4512 129.678 17.4512ZM102.86 10.0812C102.28 10.0809 101.724 10.3107 101.315 10.7201C100.905 11.1294 100.674 11.6848 100.674 12.2639C100.674 12.8431 100.904 13.3987 101.313 13.8084C101.723 14.2181 102.278 14.4485 102.858 14.4488C103.437 14.4488 103.993 14.2186 104.403 13.8088C104.813 13.3991 105.043 12.8434 105.043 12.2639C105.043 11.6845 104.813 11.1288 104.403 10.719C103.993 10.3093 103.437 10.0791 102.858 10.0791M104.366 16.13H101.32C101.261 16.1306 101.205 16.1544 101.163 16.1964C101.121 16.2384 101.098 16.295 101.098 16.3541V29.641C101.098 29.7666 101.197 29.865 101.32 29.865H104.368C104.427 29.865 104.484 29.8414 104.526 29.7994C104.568 29.7574 104.592 29.7004 104.592 29.641V16.3541C104.592 16.2947 104.568 16.2377 104.526 16.1957C104.484 16.1536 104.425 16.13 104.366 16.13ZM111.139 16.1426V15.7239C111.139 14.4844 111.615 13.9316 112.681 13.9316C113.316 13.9316 113.825 14.0572 114.398 14.2499C114.432 14.2613 114.468 14.2644 114.503 14.2591C114.538 14.2537 114.572 14.24 114.6 14.219C114.629 14.1981 114.652 14.1706 114.668 14.1388C114.684 14.107 114.692 14.0718 114.692 14.0363V11.4715C114.691 11.4235 114.676 11.3769 114.647 11.3385C114.619 11.3 114.578 11.2718 114.532 11.2579C113.711 11.0071 112.857 10.8843 111.998 10.8936C109.185 10.8936 107.698 12.4785 107.698 15.4747V16.1196H106.234C106.175 16.1196 106.118 16.1429 106.076 16.1845C106.034 16.226 106.01 16.2825 106.01 16.3415V18.9734C106.01 19.0969 106.11 19.1974 106.234 19.1974H107.698V29.6452C107.698 29.7666 107.796 29.8671 107.92 29.8671H110.968C111.027 29.8666 111.083 29.8427 111.125 29.8008C111.166 29.7588 111.19 29.7022 111.19 29.6431V19.1953H114.034L118.393 29.6431C117.898 30.7381 117.412 30.958 116.748 30.958C116.21 30.958 115.645 30.7968 115.067 30.4806C115.04 30.4663 115.01 30.4574 114.98 30.4545C114.95 30.4517 114.92 30.4548 114.891 30.4639C114.861 30.4738 114.835 30.4898 114.812 30.5107C114.789 30.5316 114.771 30.557 114.759 30.5853L113.726 32.8486C113.702 32.8997 113.698 32.9581 113.716 33.0118C113.733 33.0654 113.771 33.1104 113.82 33.1376C114.899 33.7217 115.873 33.9709 117.075 33.9709C119.325 33.9709 120.569 32.924 121.664 30.1037L126.951 16.4483C126.965 16.4145 126.97 16.3777 126.966 16.3414C126.962 16.3051 126.95 16.2702 126.929 16.24C126.909 16.2097 126.881 16.185 126.849 16.168C126.816 16.1511 126.78 16.1423 126.744 16.1426H123.572C123.526 16.1431 123.481 16.1578 123.444 16.1848C123.406 16.2118 123.378 16.2497 123.363 16.2934L120.112 25.5708L116.552 16.2871C116.536 16.2448 116.508 16.2083 116.47 16.1825C116.433 16.1567 116.389 16.1428 116.344 16.1426H111.139ZM99.4581 16.13H96.1069V12.7026C96.1069 12.6733 96.1011 12.6442 96.0898 12.6172C96.0785 12.5901 96.062 12.5655 96.0411 12.5449C96.0203 12.5243 95.9956 12.508 95.9684 12.4969C95.9412 12.4859 95.9121 12.4804 95.8828 12.4806H92.8352C92.7765 12.4812 92.7204 12.5047 92.6788 12.5462C92.6373 12.5878 92.6138 12.6439 92.6132 12.7026V16.13H91.147C91.1177 16.13 91.0887 16.1359 91.0616 16.1471C91.0345 16.1584 91.0099 16.175 90.9893 16.1958C90.9687 16.2166 90.9524 16.2413 90.9413 16.2685C90.9303 16.2957 90.9248 16.3248 90.925 16.3541V18.9713C90.925 19.0948 91.0256 19.1953 91.147 19.1953H92.6132V25.9665C92.6132 28.7051 93.9747 30.0912 96.664 30.0912C97.7574 30.0912 98.6622 29.8671 99.5168 29.3835C99.5513 29.3641 99.58 29.3358 99.5999 29.3015C99.6198 29.2673 99.6301 29.2284 99.6299 29.1888V26.6972C99.6304 26.659 99.6211 26.6213 99.6028 26.5877C99.5845 26.5542 99.5578 26.5259 99.5253 26.5057C99.4929 26.4855 99.4558 26.474 99.4176 26.4723C99.3794 26.4707 99.3414 26.4789 99.3073 26.4962C98.7209 26.7914 98.1532 26.9275 97.5186 26.9275C96.5405 26.9275 96.1048 26.4857 96.1048 25.4912V19.1953H99.456C99.4855 19.1956 99.5148 19.19 99.5421 19.1788C99.5695 19.1677 99.5943 19.1512 99.6151 19.1303C99.636 19.1094 99.6525 19.0846 99.6637 19.0573C99.6748 19.03 99.6804 19.0008 99.6802 18.9713V16.3541C99.6804 16.3248 99.6749 16.2957 99.6639 16.2685C99.6528 16.2413 99.6365 16.2166 99.6159 16.1958C99.5952 16.175 99.5707 16.1584 99.5436 16.1471C99.5165 16.1359 99.4875 16.13 99.4581 16.13ZM83.391 15.8516C79.2857 15.8516 76.0664 19.0131 76.0664 23.0478C76.0664 27.0406 79.2627 30.1665 83.3407 30.1665C87.4607 30.1665 90.6883 27.0175 90.6883 22.9975C90.6883 18.9901 87.4837 15.8516 83.391 15.8516ZM83.391 27.0783C81.2064 27.0783 79.558 25.3237 79.558 22.9955C79.558 20.6609 81.1498 18.9671 83.3407 18.9671C85.54 18.9671 87.1947 20.7216 87.1947 23.0499C87.1947 25.3844 85.5965 27.0783 83.391 27.0783ZM68.7 15.8516C66.9825 15.8516 65.5749 16.5279 64.4146 17.9118V16.3541C64.4146 16.295 64.3912 16.2384 64.3497 16.1964C64.3081 16.1544 64.2516 16.1306 64.1925 16.13H61.145C61.0859 16.1306 61.0294 16.1544 60.9879 16.1964C60.9463 16.2384 60.923 16.295 60.923 16.3541V33.6694C60.923 33.7908 61.0235 33.8913 61.145 33.8913H64.1925C64.2513 33.8908 64.3074 33.8672 64.3489 33.8257C64.3904 33.7842 64.414 33.7281 64.4146 33.6694V28.2047C65.577 29.5049 66.9846 30.1414 68.7 30.1414C71.8878 30.1414 75.1155 27.6875 75.1155 22.9975C75.1155 18.3075 71.8899 15.8516 68.7 15.8516ZM71.5737 22.9975C71.5737 25.3844 70.1012 27.0531 67.9941 27.0531C65.91 27.0531 64.3392 25.309 64.3392 22.9975C64.3392 20.686 65.91 18.9419 67.9941 18.9419C70.0677 18.9419 71.5737 20.6463 71.5737 22.9975ZM53.9042 19.2079C50.5027 18.3955 49.8974 17.826 49.8974 16.6305C49.8974 15.4998 50.9614 14.7398 52.5449 14.7398C54.078 14.7398 55.6008 15.3156 57.1947 16.5048C57.2185 16.5224 57.2455 16.535 57.2741 16.5421C57.3028 16.5492 57.3326 16.5505 57.3618 16.5461C57.391 16.5416 57.419 16.5314 57.4443 16.516C57.4695 16.5007 57.4915 16.4805 57.5089 16.4567L59.1719 14.1138C59.2042 14.0675 59.2179 14.0107 59.2101 13.9548C59.2023 13.8989 59.1737 13.848 59.1301 13.8123C57.2324 12.288 55.0939 11.5489 52.5951 11.5489C48.9192 11.5489 46.3534 13.7515 46.3534 16.9068C46.3534 20.2882 48.5673 21.4859 52.394 22.4092C55.6489 23.1588 56.1998 23.7869 56.1998 24.9112C56.1998 26.1549 55.0897 26.9275 53.2989 26.9275C51.3133 26.9275 49.6942 26.2575 47.8803 24.6914C47.835 24.6528 47.7764 24.6333 47.717 24.637C47.6874 24.6392 47.6587 24.6475 47.6324 24.6611C47.6061 24.6748 47.5829 24.6936 47.5641 24.7165L45.6999 26.9317C45.6619 26.9759 45.643 27.0333 45.6473 27.0914C45.6516 27.1495 45.6788 27.2035 45.723 27.2416C47.7768 29.1016 50.4521 30.127 53.2235 30.1163C57.1821 30.1163 59.7417 27.9535 59.7417 24.6076C59.7417 21.779 58.0514 20.215 53.9042 19.2058M19.9351 1.13879C14.7078 1.13879 9.69463 3.21455 5.99837 6.90943C2.30212 10.6043 0.225586 15.6156 0.225586 20.841C0.225586 26.0663 2.30212 31.0777 5.99837 34.7725C9.69463 38.4674 14.7078 40.5432 19.9351 40.5432C25.1624 40.5432 30.1756 38.4674 33.8719 34.7725C37.5681 31.0777 39.6446 26.0663 39.6446 20.841C39.6446 15.6156 37.5681 10.6043 33.8719 6.90943C30.1756 3.21455 25.1624 1.13879 19.9351 1.13879ZM28.9751 29.5552C28.8911 29.6931 28.7808 29.8132 28.6503 29.9084C28.5198 30.0037 28.3718 30.0722 28.2148 30.1101C28.0577 30.1481 27.8947 30.1546 27.7352 30.1295C27.5756 30.1043 27.4225 30.0479 27.2848 29.9635C22.6559 27.1369 16.8331 26.4983 9.97143 28.0644C9.81424 28.1003 9.65151 28.1049 9.49255 28.0779C9.33358 28.0509 9.18149 27.9929 9.04495 27.9072C8.90842 27.8214 8.79011 27.7096 8.69679 27.5782C8.60347 27.4467 8.53697 27.2982 8.50107 27.1411C8.46518 26.9839 8.4606 26.8213 8.48759 26.6624C8.51458 26.5035 8.57262 26.3514 8.6584 26.2149C8.74417 26.0785 8.85599 25.9602 8.98749 25.8669C9.11898 25.7736 9.26757 25.7071 9.42476 25.6713C16.9316 23.9544 23.3722 24.6935 28.5667 27.8676C29.1448 28.2215 29.327 28.9773 28.9751 29.5552ZM31.3838 24.191C31.1707 24.5376 30.8287 24.7856 30.433 24.8806C30.0372 24.9756 29.6199 24.9098 29.2725 24.6977C23.9755 21.4419 15.899 20.4997 9.63212 22.4008C9.25083 22.4912 8.8494 22.4329 8.50965 22.2377C8.16989 22.0425 7.9174 21.7251 7.80362 21.3503C7.68984 20.9754 7.72334 20.5713 7.89731 20.2203C8.07127 19.8693 8.37259 19.5978 8.73985 19.4612C15.899 17.29 24.7965 18.3431 30.879 22.0784C31.0513 22.1839 31.2011 22.3223 31.3198 22.4857C31.4385 22.6491 31.5239 22.8343 31.5709 23.0307C31.618 23.2271 31.6259 23.4309 31.5941 23.6303C31.5624 23.8298 31.4916 24.021 31.3859 24.1931M31.5954 18.6049C25.2406 14.834 14.7595 14.4865 8.69586 16.329C8.46317 16.4032 8.21804 16.4304 7.97472 16.4091C7.7314 16.3877 7.49475 16.3183 7.27852 16.2047C7.06229 16.0912 6.87079 15.9358 6.71516 15.7476C6.55952 15.5595 6.44285 15.3422 6.37193 15.1086C6.301 14.875 6.27724 14.6296 6.30202 14.3867C6.32681 14.1438 6.39963 13.9082 6.51628 13.6937C6.63292 13.4792 6.79106 13.29 6.98149 13.1371C7.17192 12.9842 7.39085 12.8707 7.62556 12.8031C14.5857 10.6884 26.1601 11.0988 33.4721 15.437C33.8926 15.6863 34.1968 16.0924 34.3178 16.566C34.4388 17.0395 34.3666 17.5417 34.1172 17.9621C33.8678 18.3824 33.4615 18.6865 32.9878 18.8075C32.5141 18.9284 32.0117 18.8563 31.5912 18.607" fill="white"/>
</g>
<defs>
<clipPath id="clip0_0_527">
<rect width="132" height="41.875" fill="white" transform="translate(0 0.5)"/>
</clipPath>
</defs>
</svg>
