<svg width="30" height="21" viewBox="0 0 30 21" fill="none" xmlns="http://www.w3.org/2000/svg">
<g clip-path="url(#clip0_0_648)">
<path d="M1.63989 1.75312H28.2799V20.1531H1.63989V1.75312Z" fill="white"/>
<path d="M6.78344 14.6329C6.78344 14.3078 6.6144 14.3292 6.45232 14.3257V14.2318C6.5928 14.2387 6.7368 14.2387 6.87752 14.2387C7.0288 14.2387 7.23432 14.2318 7.50096 14.2318C8.43392 14.2318 8.942 14.8568 8.942 15.4968C8.942 15.8547 8.7332 16.7544 7.4576 16.7544C7.27392 16.7544 7.1044 16.7474 6.9352 16.7474C6.77304 16.7474 6.6144 16.751 6.45232 16.7545V16.6606C6.66832 16.6388 6.77312 16.6316 6.78336 16.3858V14.633L6.78344 14.6329ZM7.13664 16.3281C7.13664 16.6064 7.33504 16.6389 7.51144 16.6389C8.29 16.6389 8.5456 16.0497 8.5456 15.5111C8.5456 14.8355 8.11312 14.3476 7.41784 14.3476C7.26984 14.3476 7.20184 14.3582 7.13664 14.3621V16.3281ZM9.06848 16.6606H9.13672C9.23752 16.6606 9.30968 16.6606 9.30968 16.5411V15.5618C9.30968 15.403 9.25568 15.3809 9.12232 15.309V15.2511C9.2916 15.2001 9.4936 15.1319 9.50776 15.121C9.5332 15.1066 9.55464 15.1027 9.57272 15.1027C9.59056 15.1027 9.59808 15.1246 9.59808 15.1536V16.5411C9.59808 16.6606 9.67728 16.6606 9.77816 16.6606H9.83936V16.7546C9.71672 16.7546 9.59056 16.7474 9.46112 16.7474C9.33144 16.7474 9.2016 16.751 9.06848 16.7546V16.6606ZM9.45392 14.5462C9.36008 14.5462 9.27744 14.4596 9.27744 14.3656C9.27744 14.2751 9.36392 14.1918 9.45392 14.1918C9.54728 14.1918 9.63056 14.268 9.63056 14.3656C9.63056 14.4632 9.55096 14.5462 9.45392 14.5462ZM10.1817 15.5834C10.1817 15.4498 10.1418 15.4138 9.97288 15.345V15.2765C10.1277 15.2259 10.2753 15.1789 10.4483 15.1028C10.459 15.1028 10.4696 15.1102 10.4696 15.1389V15.3739C10.6754 15.2259 10.852 15.1027 11.0937 15.1027C11.3996 15.1027 11.5077 15.3269 11.5077 15.6087V16.5411C11.5077 16.6606 11.5869 16.6606 11.6879 16.6606H11.7528V16.7546C11.6264 16.7546 11.5003 16.7474 11.3709 16.7474C11.241 16.7474 11.1112 16.751 10.9817 16.7546V16.6606H11.0463C11.1475 16.6606 11.2191 16.6606 11.2191 16.5411V15.6053C11.2191 15.399 11.0937 15.298 10.8879 15.298C10.7728 15.298 10.589 15.3919 10.4696 15.4716V16.541C10.4696 16.6606 10.5493 16.6606 10.6503 16.6606H10.715V16.7546C10.589 16.7546 10.4627 16.7474 10.333 16.7474C10.2034 16.7474 10.0734 16.751 9.94384 16.7546V16.6606H10.0089C10.1097 16.6606 10.1817 16.6606 10.1817 16.541V15.5834ZM12.0268 15.757C12.0193 15.7897 12.0193 15.8438 12.0268 15.9668C12.048 16.31 12.2684 16.5918 12.5562 16.5918C12.7546 16.5918 12.9098 16.4834 13.043 16.3498L13.0932 16.4006C12.9274 16.6209 12.722 16.8087 12.4268 16.8087C11.8537 16.8087 11.7384 16.252 11.7384 16.021C11.7384 15.3125 12.2139 15.1027 12.466 15.1027C12.758 15.1027 13.0718 15.287 13.0751 15.6701C13.0751 15.692 13.0751 15.7134 13.0718 15.7354L13.0391 15.757H12.0268ZM12.6647 15.6414C12.7546 15.6414 12.7652 15.5943 12.7652 15.551C12.7652 15.3667 12.6535 15.2185 12.4516 15.2185C12.2321 15.2185 12.0807 15.3809 12.0375 15.6414H12.6647ZM13.1581 16.6606H13.2554C13.356 16.6606 13.4281 16.6606 13.4281 16.5411V15.5257C13.4281 15.4137 13.295 15.3919 13.2408 15.363V15.309C13.5038 15.1968 13.6481 15.1027 13.6808 15.1027C13.7022 15.1027 13.7128 15.1137 13.7128 15.1499V15.4751H13.7204C13.8103 15.3343 13.9619 15.1027 14.1814 15.1027C14.2716 15.1027 14.3868 15.1641 14.3868 15.2943C14.3868 15.3919 14.3185 15.479 14.2177 15.479C14.1055 15.479 14.1055 15.3919 13.9796 15.3919C13.9182 15.3919 13.7166 15.4751 13.7166 15.692V16.5411C13.7166 16.6606 13.7886 16.6606 13.8896 16.6606H14.0912V16.7546C13.893 16.751 13.7422 16.7474 13.587 16.7474C13.4393 16.7474 13.2878 16.751 13.1582 16.7546L13.1581 16.6606ZM14.5454 16.252C14.5924 16.4906 14.7363 16.6931 14.9995 16.6931C15.2117 16.6931 15.291 16.563 15.291 16.4366C15.291 16.01 14.5058 16.1474 14.5058 15.5655C14.5058 15.363 14.6681 15.1027 15.0642 15.1027C15.1794 15.1027 15.3342 15.1355 15.4747 15.2078L15.5002 15.5762H15.4172C15.3812 15.3487 15.2553 15.2186 15.0244 15.2186C14.8803 15.2186 14.7435 15.3018 14.7435 15.457C14.7435 15.8802 15.5794 15.7498 15.5794 16.3171C15.5794 16.5555 15.3884 16.8088 14.9595 16.8088C14.8154 16.8088 14.6462 16.7582 14.5202 16.6861L14.4804 16.2703L14.5454 16.252ZM18.833 14.8859H18.7432C18.6746 14.4633 18.3756 14.2932 17.9722 14.2932C17.5575 14.2932 16.9558 14.5714 16.9558 15.4387C16.9558 16.1693 17.475 16.6931 18.0297 16.6931C18.3863 16.6931 18.682 16.4474 18.7541 16.0678L18.8367 16.0894L18.7541 16.617C18.6027 16.7112 18.1955 16.8087 17.9574 16.8087C17.1146 16.8087 16.5814 16.263 16.5814 15.4498C16.5814 14.7088 17.2406 14.1774 17.9469 14.1774C18.2386 14.1774 18.5197 14.2717 18.7971 14.3694L18.833 14.8859ZM18.963 16.6606H19.0313C19.1323 16.6606 19.2046 16.6606 19.2046 16.5411V14.5283C19.2046 14.2932 19.1506 14.286 19.0134 14.2463V14.1885C19.1576 14.1416 19.309 14.0765 19.3846 14.033C19.4238 14.0114 19.453 13.9931 19.4637 13.9931C19.4857 13.9931 19.4929 14.015 19.4929 14.044V16.5411C19.4929 16.6606 19.572 16.6606 19.673 16.6606H19.7338V16.7546C19.6118 16.7546 19.4857 16.7474 19.3558 16.7474C19.2262 16.7474 19.0966 16.751 18.963 16.7546V16.6606ZM21.2766 16.5555C21.2766 16.6209 21.3161 16.6244 21.3772 16.6244C21.4206 16.6244 21.4745 16.6209 21.5214 16.6209V16.6969C21.3664 16.7113 21.0709 16.7873 21.0024 16.8087L20.9843 16.7978V16.5054C20.7683 16.6823 20.6024 16.8087 20.3464 16.8087C20.1518 16.8087 19.9501 16.6823 19.9501 16.379V15.4534C19.9501 15.3595 19.9357 15.269 19.7343 15.2511V15.1823C19.8642 15.1788 20.1518 15.1571 20.1989 15.1571C20.2389 15.1571 20.2389 15.1824 20.2389 15.2619V16.1941C20.2389 16.3027 20.2389 16.6134 20.5521 16.6134C20.6745 16.6134 20.8366 16.5195 20.9878 16.3934V15.4206C20.9878 15.3486 20.815 15.309 20.6856 15.2727V15.2077C21.0094 15.1859 21.2116 15.1571 21.2474 15.1571C21.2766 15.1571 21.2766 15.1823 21.2766 15.2223V16.5555ZM21.9936 15.363C22.1376 15.2402 22.332 15.1027 22.5304 15.1027C22.9486 15.1027 23.2005 15.4682 23.2005 15.8618C23.2005 16.3352 22.8547 16.8087 22.3391 16.8087C22.0726 16.8087 21.9322 16.7219 21.8383 16.6823L21.7305 16.7652L21.655 16.7257C21.687 16.5125 21.7054 16.3027 21.7054 16.0824V14.5283C21.7054 14.2932 21.651 14.286 21.5142 14.2463V14.1885C21.6587 14.1416 21.8096 14.0765 21.8854 14.033C21.925 14.0114 21.9537 13.9931 21.9649 13.9931C21.9863 13.9931 21.9935 14.015 21.9935 14.044L21.9936 15.363ZM21.9936 16.346C21.9936 16.4834 22.1231 16.715 22.3646 16.715C22.7502 16.715 22.9122 16.3352 22.9122 16.0134C22.9122 15.6232 22.617 15.298 22.3359 15.298C22.2022 15.298 22.0908 15.3849 21.9935 15.4682L21.9936 16.346ZM6.44824 18.8559H6.47584C6.54624 18.8559 6.62072 18.8463 6.62072 18.7439V17.7137C6.62072 17.6111 6.54624 17.6014 6.47584 17.6014H6.44824V17.5424C6.5248 17.5424 6.6424 17.5502 6.7388 17.5502C6.83664 17.5502 6.95416 17.5424 7.04632 17.5424V17.6014H7.01872C6.9484 17.6014 6.87376 17.6111 6.87376 17.7137V18.7439C6.87376 18.8463 6.9484 18.8559 7.01872 18.8559H7.04632V18.9152C6.95224 18.9152 6.83432 18.9074 6.73656 18.9074C6.64048 18.9074 6.5248 18.9152 6.44824 18.9152V18.8559Z" fill="#211E1F"/>
<path d="M7.04642 18.9235C6.9517 18.9235 6.83426 18.9156 6.73658 18.9156C6.64074 18.9156 6.52546 18.9235 6.44834 18.9235H6.43994V18.8474H6.47586C6.5469 18.8458 6.61162 18.8401 6.61234 18.7439V17.7137C6.61162 17.6175 6.5469 17.6111 6.47586 17.6098H6.43994V17.5337H6.44834C6.52546 17.5337 6.6429 17.5414 6.73874 17.5414C6.83634 17.5414 6.9537 17.5337 7.04642 17.5337H7.05522V17.6098H7.01898C6.94786 17.6111 6.88274 17.6175 6.88234 17.7137V18.7439C6.88274 18.8401 6.94786 18.8458 7.01898 18.8474H7.05514V18.9234H7.04642V18.9235ZM7.03802 18.9067V18.8647H7.01898C6.94898 18.8647 6.86562 18.8526 6.86522 18.7439V17.7137C6.86562 17.605 6.94898 17.5927 7.01898 17.5927H7.03802V17.551C6.94746 17.551 6.83394 17.5586 6.73882 17.5586C6.64562 17.5586 6.5329 17.5515 6.45706 17.551V17.5927H6.47578C6.5457 17.5927 6.62938 17.605 6.62938 17.7137V18.7439C6.62938 18.8526 6.5457 18.8647 6.47578 18.8647H6.45706V18.9067C6.5329 18.9059 6.6437 18.8988 6.73658 18.8988C6.83202 18.8988 6.94554 18.9062 7.03802 18.9067ZM8.39338 18.5275L8.39738 18.5237V17.7863C8.39738 17.6249 8.28538 17.6015 8.22674 17.6015H8.18346V17.5423C8.27578 17.5423 8.36586 17.5502 8.45794 17.5502C8.53826 17.5502 8.61906 17.5424 8.6993 17.5424V17.6014H8.66994C8.58738 17.6014 8.49522 17.6171 8.49522 17.851V18.7461C8.49522 18.8149 8.49722 18.8835 8.5069 18.9445H8.43226L7.42274 17.8157V18.626C7.42274 18.7971 7.45578 18.8558 7.60698 18.8558H7.64018V18.9152C7.55602 18.9152 7.47186 18.9074 7.38738 18.9074C7.29938 18.9074 7.20914 18.9152 7.12082 18.9152V18.8558H7.14826C7.28354 18.8558 7.32458 18.7637 7.32458 18.6065V17.7782C7.32458 17.6682 7.23418 17.6014 7.14634 17.6014H7.12074V17.5424C7.1953 17.5424 7.2717 17.5502 7.3461 17.5502C7.40498 17.5502 7.46194 17.5424 7.52066 17.5424L8.39338 18.5275Z" fill="#211E1F"/>
<path d="M8.50686 18.9531L8.42606 18.9501L7.43102 17.8379V18.626C7.43342 18.797 7.45934 18.8455 7.60702 18.8474H7.64902V18.9235H7.64022C7.55542 18.9235 7.47102 18.9156 7.38742 18.9156C7.29958 18.9156 7.20958 18.9236 7.12062 18.9236H7.11206V18.8474H7.14822C7.27782 18.8468 7.31478 18.7634 7.31622 18.6066V17.7783C7.31598 17.6736 7.23038 17.6101 7.1463 17.6098H7.11206V17.534H7.12062C7.19558 17.534 7.27238 17.5415 7.3459 17.5415C7.4043 17.5415 7.4611 17.534 7.52718 17.5369L8.38878 18.5097V17.7865C8.38774 17.63 8.28374 17.6112 8.22662 17.6098H8.1747V17.534H8.18342C8.27606 17.534 8.3663 17.5415 8.4579 17.5415C8.53774 17.5415 8.61806 17.534 8.6991 17.534H8.70766V17.6098H8.6699C8.58902 17.6122 8.5059 17.6192 8.50366 17.8511V18.746C8.50366 18.8147 8.50566 18.8834 8.51518 18.943L8.5171 18.9531H8.50686ZM8.43246 18.9358H8.49726C8.48846 18.8767 8.48686 18.8113 8.48686 18.746V17.8511C8.48686 17.6151 8.5855 17.5927 8.6699 17.5927H8.69062V17.551C8.61334 17.5516 8.5359 17.5586 8.45798 17.5586C8.36822 17.5586 8.28094 17.5516 8.19214 17.551L8.19206 17.5927H8.2267C8.28694 17.5927 8.4059 17.6198 8.4059 17.7865L8.40318 18.5296L8.39918 18.5337L8.39262 18.5398L7.52062 17.551C7.46246 17.551 7.40566 17.5586 7.34598 17.5586C7.27398 17.5586 7.20046 17.5516 7.12942 17.551L7.12894 17.5927H7.14638C7.23838 17.5927 7.33294 17.6632 7.33294 17.7783V18.6065C7.33294 18.7637 7.28926 18.8643 7.1483 18.8649L7.12942 18.8643V18.9067C7.21438 18.9059 7.30166 18.8988 7.38742 18.8988C7.46926 18.8988 7.5507 18.906 7.63174 18.9068V18.8649H7.60694C7.4527 18.8643 7.41438 18.797 7.41414 18.626V17.7936L8.43246 18.9358ZM8.38886 18.5236V18.523L8.38726 18.5216L8.38886 18.5236ZM8.99286 17.6406C8.84558 17.6406 8.84006 17.6761 8.81062 17.8195H8.75174C8.7595 17.7646 8.76934 17.7096 8.77526 17.6523C8.78318 17.5973 8.78694 17.5424 8.78694 17.4854H8.83414C8.8499 17.5445 8.89894 17.5424 8.95206 17.5424H9.96342C10.0165 17.5424 10.0654 17.5406 10.0695 17.4814L10.1162 17.4893C10.1086 17.5424 10.1007 17.5955 10.0948 17.6486C10.0913 17.7017 10.0913 17.7549 10.0913 17.8078L10.0322 17.8298C10.0281 17.757 10.0184 17.6406 9.88718 17.6406H9.56558V18.687C9.56558 18.8386 9.6343 18.8559 9.72806 18.8559H9.7655V18.9152C9.68902 18.9152 9.55158 18.9074 9.44598 18.9074C9.32838 18.9074 9.19094 18.9152 9.11438 18.9152V18.8559H9.15174C9.25982 18.8559 9.31446 18.8462 9.31446 18.691V17.6406H8.99286Z" fill="#211E1F"/>
<path d="M9.76587 18.9235C9.68867 18.9235 9.55147 18.9156 9.44611 18.9156C9.32867 18.9156 9.19147 18.9235 9.11451 18.9235H9.10635V18.8474H9.15195C9.25995 18.8449 9.30347 18.8434 9.30595 18.691V17.6491H8.99291V17.6318H9.32283V18.691C9.32283 18.8487 9.25955 18.8646 9.15187 18.8648H9.12307V18.9062C9.20035 18.9058 9.33227 18.8987 9.44603 18.8987C9.54827 18.8987 9.67939 18.9058 9.75683 18.9062V18.8648H9.72819C9.63339 18.8646 9.55715 18.8414 9.55715 18.6869V17.6318H9.88723C10.0188 17.6323 10.036 17.7446 10.0403 17.8175L10.0826 17.8018C10.0826 17.7506 10.0829 17.6991 10.0864 17.6474C10.0921 17.5967 10.0993 17.5466 10.1067 17.4964L10.0767 17.4914C10.0676 17.5486 10.0126 17.5514 9.96315 17.551H8.94203C8.89595 17.551 8.84555 17.5487 8.82795 17.4938H8.79563C8.79539 17.5472 8.79163 17.6005 8.78403 17.6533C8.77835 17.7074 8.76939 17.7593 8.76203 17.8112H8.80403C8.82987 17.6742 8.84667 17.6298 8.99291 17.6318V17.6491C8.84803 17.6517 8.85107 17.6762 8.81915 17.8216L8.81763 17.8282H8.74219L8.74331 17.8181C8.75115 17.763 8.76107 17.7082 8.76691 17.6509C8.77507 17.5963 8.77891 17.5418 8.77891 17.4853V17.4767H8.84107L8.84243 17.4829C8.85587 17.5325 8.89219 17.5328 8.94203 17.5336H9.96339C10.018 17.5328 10.0578 17.532 10.0611 17.4806L10.0619 17.4713L10.0707 17.4732L10.1261 17.482L10.1249 17.4905C10.1167 17.5432 10.1096 17.5961 10.1035 17.6491C10.0995 17.7014 10.0995 17.7546 10.0995 17.8077V17.8138L10.0942 17.816L10.0247 17.8414L10.0242 17.8298C10.019 17.756 10.0112 17.649 9.88739 17.649H9.57443V18.6868C9.57619 18.8352 9.63491 18.8454 9.72827 18.8473H9.77427V18.9234H9.76595L9.76587 18.9235ZM10.1791 18.8558H10.2067C10.2771 18.8558 10.3517 18.8463 10.3517 18.7439V17.7137C10.3517 17.6111 10.2771 17.6014 10.2067 17.6014H10.1791V17.5424C10.2984 17.5424 10.5027 17.5502 10.6671 17.5502C10.8321 17.5502 11.0356 17.5424 11.1688 17.5424C11.1658 17.6427 11.1672 17.7431 11.1732 17.8432L11.114 17.859C11.1047 17.7313 11.0812 17.6291 10.8751 17.6291H10.6028V18.1442H10.8359C10.9535 18.1442 10.9791 18.0774 10.9907 17.971H11.0495C11.0416 18.1223 11.0416 18.274 11.0495 18.4254L10.9907 18.4371C10.9792 18.3192 10.9732 18.2426 10.8378 18.2426H10.6029V18.7006C10.6029 18.8286 10.7161 18.8286 10.8418 18.8286C11.0771 18.8286 11.1808 18.8126 11.2397 18.5888L11.2947 18.6022C11.2685 18.7057 11.2464 18.8101 11.2282 18.9152C11.1026 18.9152 10.877 18.9074 10.7007 18.9074C10.5239 18.9074 10.2909 18.9152 10.1791 18.9152L10.1791 18.8558Z" fill="#211E1F"/>
<path d="M11.2279 18.9235C11.1019 18.9235 10.8766 18.9155 10.7005 18.9155C10.5239 18.9155 10.2909 18.9235 10.1789 18.9235H10.1707V18.8475H10.2064C10.2775 18.8464 10.3419 18.8401 10.3429 18.744V17.7137C10.3419 17.6177 10.2775 17.6113 10.2064 17.6098H10.1707V17.534H10.1789C10.2986 17.534 10.5025 17.5415 10.6669 17.5415C10.8318 17.5415 11.0352 17.534 11.1687 17.534H11.1775L11.1771 17.5428C11.1757 17.5766 11.1751 17.6105 11.1752 17.6443C11.1752 17.7123 11.1771 17.7866 11.1811 17.8427L11.1814 17.8498L11.1748 17.8517L11.1059 17.8697L11.1055 17.8596C11.0939 17.732 11.077 17.6394 10.8751 17.6375H10.6109L10.6107 18.1353H10.8358C10.9486 18.1342 10.9689 18.0762 10.9822 17.9703L10.983 17.9626H11.0581L11.0579 17.9714C11.054 18.0479 11.0519 18.1246 11.0517 18.2013C11.0517 18.2757 11.0541 18.3503 11.0579 18.4252L11.0581 18.4322L11.051 18.4338L10.983 18.4474L10.9822 18.4382C10.9687 18.3182 10.9678 18.2524 10.8375 18.251L10.6109 18.2508V18.7006C10.6111 18.8201 10.7138 18.8194 10.8416 18.8201C11.0776 18.8187 11.1723 18.8073 11.2315 18.5863L11.2334 18.5784L11.2416 18.58L11.3044 18.5962L11.3025 18.6043C11.2772 18.7085 11.2537 18.8124 11.2361 18.9166L11.2345 18.9235H11.2279ZM11.2207 18.9064C11.2384 18.8065 11.2596 18.7072 11.2842 18.6087L11.2454 18.5989C11.1867 18.819 11.073 18.8386 10.8416 18.8371C10.7182 18.8371 10.5944 18.8371 10.5939 18.7006V18.234H10.8375C10.9744 18.2325 10.9884 18.3154 10.9981 18.4274L11.0405 18.4186C11.033 18.2724 11.033 18.1259 11.0405 17.9797L10.9981 17.9796C10.9872 18.082 10.9553 18.154 10.8357 18.1526H10.5939V17.6203H10.8751C11.0791 17.6189 11.1128 17.7245 11.1215 17.8482L11.1639 17.8367C11.1601 17.7727 11.1582 17.7085 11.1581 17.6443C11.1581 17.6106 11.1589 17.5789 11.16 17.551C11.0268 17.5516 10.8283 17.5586 10.6669 17.5586C10.5058 17.5586 10.3075 17.5516 10.1874 17.551V17.5927H10.2064C10.2763 17.5927 10.3598 17.605 10.36 17.7137V18.744C10.3598 18.8523 10.2763 18.8643 10.2064 18.8649H10.1874V18.9063C10.3018 18.9062 10.5282 18.8989 10.7005 18.8989C10.8734 18.8989 11.0942 18.9062 11.2207 18.9063V18.9064ZM11.5591 17.7508C11.5591 17.6074 11.4808 17.6014 11.4198 17.6014H11.3846V17.5422C11.4474 17.5422 11.5687 17.5502 11.6884 17.5502C11.806 17.5502 11.9003 17.5422 12.004 17.5422C12.2508 17.5422 12.4707 17.6093 12.4707 17.8888C12.4707 18.0654 12.3531 18.1736 12.1983 18.2348L12.5335 18.738C12.5883 18.8212 12.6274 18.8444 12.7236 18.8559V18.9152C12.6588 18.9152 12.5961 18.9074 12.5315 18.9074C12.4707 18.9074 12.4078 18.9152 12.3472 18.9152C12.1963 18.7166 12.0667 18.5041 11.9392 18.2778H11.8103V18.6988C11.8103 18.8504 11.8805 18.8559 11.9707 18.8559H12.006V18.9152C11.894 18.9152 11.7807 18.9074 11.6688 18.9074C11.5746 18.9074 11.4824 18.9152 11.3846 18.9152V18.8559H11.4198C11.4926 18.8559 11.5591 18.8229 11.5591 18.7499V17.7507L11.5591 17.7508ZM11.8103 18.207H11.9059C12.1021 18.207 12.2078 18.1323 12.2078 17.9002C12.2078 17.7254 12.0961 17.6132 11.9214 17.6132C11.8626 17.6132 11.8375 17.6194 11.8102 17.6211V18.207H11.8103Z" fill="#211E1F"/>
<path d="M12.7237 18.9235C12.658 18.9235 12.5956 18.9156 12.5311 18.9156C12.4713 18.9156 12.4087 18.9236 12.3404 18.9202C12.19 18.7224 12.0612 18.5112 11.9344 18.2865H11.8185V18.6986C11.8206 18.8466 11.8799 18.8453 11.9705 18.8474H12.0145V18.9236H12.0057C11.8937 18.9236 11.78 18.9156 11.6686 18.9156C11.5749 18.9156 11.483 18.9236 11.3846 18.9236H11.376V18.8474H11.4197C11.4905 18.847 11.5501 18.8162 11.5503 18.75V17.7508C11.5488 17.6112 11.4807 17.612 11.4197 17.61H11.376V17.5338H11.3845C11.4481 17.5338 11.569 17.5415 11.6885 17.5415C11.8055 17.5415 11.8997 17.5338 12.0041 17.5338C12.2512 17.5343 12.4788 17.6027 12.4794 17.8882C12.4794 18.0659 12.3624 18.1768 12.211 18.2386L12.5405 18.7334C12.5953 18.815 12.6294 18.8352 12.7249 18.8474L12.7321 18.8486V18.9236L12.7237 18.9235ZM11.8101 18.2694H11.9441L11.9464 18.2737C12.0741 18.4996 12.2029 18.7118 12.3473 18.9068C12.4071 18.9068 12.4701 18.8987 12.5311 18.8987C12.5937 18.8987 12.6541 18.9055 12.7152 18.9065V18.8634C12.6232 18.8519 12.5801 18.8244 12.5265 18.7427L12.1853 18.2307L12.1949 18.2267C12.3484 18.1662 12.4619 18.0611 12.4621 17.8882C12.4619 17.6154 12.2506 17.5522 12.0041 17.551C11.9007 17.551 11.8065 17.5588 11.6885 17.5588C11.5733 17.5588 11.457 17.5516 11.3929 17.551V17.5927H11.4197C11.4807 17.5929 11.5674 17.603 11.5674 17.7508V18.75C11.5674 18.8289 11.4936 18.8649 11.4197 18.865H11.3929V18.9065C11.4873 18.9062 11.5765 18.8987 11.6686 18.8987C11.7782 18.8987 11.8889 18.9062 11.9973 18.9065V18.865H11.9705C11.8811 18.8649 11.8014 18.8538 11.8014 18.6986V18.2694H11.81H11.8101ZM11.8101 18.2154H11.8014V17.6132L11.8089 17.6126C11.8357 17.6105 11.8622 17.6049 11.9215 17.6049C12.1001 17.6049 12.2162 17.7214 12.2165 17.9006C12.216 18.1354 12.1037 18.2152 11.906 18.2153H11.81L11.8101 18.2154ZM11.906 18.1984C12.1001 18.1968 12.1977 18.1292 12.1998 17.9006C12.1987 17.7288 12.0922 17.6222 11.9214 17.6215C11.8685 17.6215 11.8436 17.6264 11.8185 17.6286V18.1984H11.906ZM14.0548 18.5276L14.0584 18.5238V17.7864C14.0584 17.625 13.9468 17.6015 13.888 17.6015H13.845V17.5424C13.937 17.5424 14.0271 17.5502 14.1194 17.5502C14.1999 17.5502 14.28 17.5424 14.3609 17.5424V17.6015H14.3313C14.2489 17.6015 14.1568 17.6171 14.1568 17.8511V18.7462C14.1568 18.8149 14.1587 18.8836 14.1684 18.9446H14.094L13.0844 17.8158V18.626C13.0844 18.7972 13.1177 18.8559 13.2685 18.8559H13.3019V18.9152C13.2177 18.9152 13.1333 18.9074 13.0491 18.9074C12.9606 18.9074 12.8705 18.9152 12.7824 18.9152V18.8559H12.8096C12.945 18.8559 12.9862 18.7638 12.9862 18.6066V17.7782C12.9862 17.6682 12.8961 17.6014 12.808 17.6014H12.7824V17.5425C12.8566 17.5425 12.9334 17.5502 13.0078 17.5502C13.0662 17.5502 13.1233 17.5425 13.1822 17.5425L14.0548 18.5276Z" fill="#211E1F"/>
<path d="M14.1684 18.953L14.0876 18.9503L13.0926 17.838V18.626C13.0949 18.797 13.1207 18.8456 13.2686 18.8475H13.3102V18.9235H13.3015C13.2167 18.9235 13.1327 18.9155 13.0486 18.9155C12.961 18.9155 12.8705 18.9235 12.7822 18.9235H12.7734V18.8475H12.8094C12.9389 18.847 12.976 18.7634 12.9773 18.606V17.7782C12.9771 17.6734 12.8916 17.61 12.8078 17.6098H12.7734V17.5338H12.7822C12.857 17.5338 12.9338 17.5415 13.0077 17.5415C13.0653 17.5415 13.1222 17.5338 13.188 17.5365L14.0498 18.5098V17.7862C14.0493 17.63 13.9449 17.6106 13.8879 17.6098H13.8361V17.5338H13.8447C13.9374 17.5338 14.0277 17.5415 14.1193 17.5415C14.1993 17.5415 14.2796 17.5338 14.3604 17.5338H14.3689V17.6098H14.3313C14.2504 17.612 14.167 17.6193 14.165 17.8512V18.746C14.165 18.8148 14.1667 18.883 14.1766 18.9434L14.1778 18.953H14.1684ZM14.0939 18.9358H14.1583C14.1498 18.8768 14.1478 18.8114 14.1478 18.746V17.8512C14.148 17.6152 14.2472 17.5934 14.3313 17.5926H14.3518V17.551C14.2748 17.5516 14.1972 17.5587 14.1193 17.5587C14.0293 17.5587 13.9418 17.5516 13.853 17.551V17.5926H13.8879C13.9482 17.5934 14.0671 17.6198 14.0671 17.7862L14.0644 18.5297L14.0606 18.5337L14.0546 18.5401L13.182 17.5511C13.1238 17.5511 13.067 17.5587 13.0077 17.5587C12.9351 17.5587 12.8618 17.5516 12.7905 17.5511V17.5927H12.8078C12.8998 17.5934 12.9944 17.663 12.9944 17.7782V18.606C12.9944 18.7639 12.9501 18.8644 12.8095 18.865L12.7905 18.8648V18.9064C12.8751 18.906 12.9626 18.8989 13.0486 18.8989C13.1309 18.8989 13.2123 18.906 13.2934 18.9064V18.865H13.2686C13.1142 18.8648 13.0756 18.797 13.0753 18.6259V17.7939L14.0939 18.9358ZM14.0498 18.5238V18.5231L14.0482 18.5216L14.0498 18.5238ZM14.6761 18.6339C14.6562 18.7006 14.6326 18.7522 14.6326 18.7872C14.6326 18.8464 14.7151 18.856 14.7796 18.856H14.8014V18.9152C14.7223 18.9105 14.6431 18.9079 14.5638 18.9074C14.4933 18.9074 14.423 18.911 14.3524 18.9153V18.8559H14.3642C14.4406 18.8559 14.5055 18.8108 14.5344 18.7281L14.8485 17.8257C14.8738 17.7529 14.9094 17.6545 14.9213 17.5817C14.9837 17.5602 15.0622 17.5209 15.0994 17.4972C15.1054 17.4952 15.1089 17.4931 15.115 17.4931C15.1209 17.4931 15.1246 17.4931 15.129 17.4993C15.1347 17.5148 15.1404 17.5326 15.1467 17.5483L15.5074 18.577C15.5309 18.6457 15.5542 18.7184 15.5796 18.7775C15.6032 18.8326 15.6446 18.8559 15.7094 18.8559H15.721V18.9153C15.6309 18.9105 15.5407 18.9079 15.4506 18.9075C15.3544 18.9075 15.2562 18.911 15.1562 18.9153V18.8559H15.1779C15.2228 18.8559 15.2995 18.8483 15.2995 18.7991C15.2995 18.7735 15.2818 18.7206 15.2599 18.6574L15.1837 18.4293H14.7386L14.6761 18.634V18.6339ZM14.9622 17.7627H14.9582L14.7758 18.3193H15.1422L14.9622 17.7627Z" fill="#211E1F"/>
<path d="M15.7203 18.9235C15.6321 18.9195 15.5438 18.9155 15.4505 18.9155C15.3543 18.9155 15.2567 18.9195 15.1563 18.9235L15.1475 18.9241V18.8472H15.1777C15.2231 18.8472 15.2905 18.8368 15.2905 18.799C15.2911 18.7766 15.2734 18.7227 15.2518 18.6601L15.1772 18.4377H14.7447L14.6838 18.6364C14.6639 18.7034 14.6404 18.7554 14.6405 18.7874C14.6412 18.8354 14.7145 18.8472 14.7795 18.8472H14.8097V18.924L14.8009 18.9235C14.7224 18.9195 14.6423 18.9155 14.5641 18.9155C14.4938 18.9155 14.4232 18.9195 14.3529 18.9235L14.3438 18.9241V18.8472H14.364C14.437 18.8469 14.4979 18.8054 14.5262 18.7253L14.8402 17.8228C14.8658 17.7498 14.9012 17.6518 14.9181 17.5734C14.9801 17.5513 15.0398 17.523 15.0961 17.489C15.1016 17.4872 15.107 17.4845 15.115 17.4845C15.1193 17.4843 15.1236 17.4853 15.1274 17.4873C15.1312 17.4893 15.1344 17.4923 15.1366 17.496C15.1422 17.5122 15.1484 17.5296 15.1543 17.5456L15.5154 18.5741C15.5386 18.6431 15.562 18.7158 15.5875 18.7738C15.6102 18.8263 15.6463 18.847 15.7093 18.8472H15.7293V18.9241L15.7203 18.9235ZM15.1646 18.9059C15.2618 18.9026 15.3568 18.8987 15.4505 18.8987C15.5415 18.8987 15.6268 18.9026 15.7121 18.9059V18.8649H15.7093C15.6422 18.8653 15.5957 18.8389 15.5717 18.7809C15.5461 18.7212 15.5222 18.6482 15.4993 18.5794L15.1382 17.551C15.1323 17.5354 15.1265 17.5174 15.1214 17.5036C15.1198 17.5017 15.1201 17.5017 15.1185 17.5017H15.115C15.1109 17.5017 15.1086 17.5029 15.1036 17.5042C15.0658 17.529 14.9871 17.5675 14.929 17.583C14.9169 17.6574 14.8817 17.7555 14.8561 17.8284L14.5424 18.731C14.5125 18.8163 14.4437 18.865 14.364 18.8649H14.3609V18.9059C14.4281 18.9026 14.4961 18.8987 14.5641 18.8987C14.6398 18.8987 14.7173 18.9026 14.7921 18.9059V18.8649H14.7795C14.7157 18.8641 14.6265 18.8569 14.6241 18.7874C14.6242 18.7482 14.6483 18.6978 14.6674 18.6314L14.676 18.6341L14.6674 18.6312L14.732 18.421H15.1891L15.2678 18.6546C15.2898 18.7178 15.3077 18.7702 15.3077 18.799C15.3049 18.8594 15.2221 18.8637 15.1777 18.8649H15.1646V18.9059ZM14.7638 18.3277L14.9516 17.7541H14.9622H14.9681L15.1541 18.3277H14.7638ZM14.7873 18.3106H15.1305L14.9599 17.7836L14.7873 18.3106ZM15.8071 17.6406C15.6599 17.6406 15.6542 17.6761 15.6246 17.8195H15.5657C15.5734 17.7646 15.5833 17.7096 15.5895 17.6523C15.5974 17.5973 15.6009 17.5424 15.6009 17.4854H15.6482C15.6639 17.5445 15.7131 17.5424 15.7657 17.5424H16.7778C16.8303 17.5424 16.8793 17.5406 16.8833 17.4814L16.9302 17.4893C16.9228 17.5424 16.915 17.5955 16.909 17.6486C16.9048 17.7017 16.9048 17.7549 16.9048 17.8078L16.8461 17.8297C16.8424 17.757 16.8326 17.6406 16.7012 17.6406H16.3796V18.687C16.3796 18.8386 16.4484 18.8559 16.5422 18.8559H16.5794V18.9152C16.503 18.9152 16.366 18.9074 16.26 18.9074C16.1425 18.9074 16.005 18.9152 15.9286 18.9152V18.8559H15.9657C16.0737 18.8559 16.1288 18.8462 16.1288 18.691V17.6406H15.8071Z" fill="#211E1F"/>
<path d="M16.5796 18.9235C16.5026 18.9235 16.3653 18.9155 16.2601 18.9155C16.1429 18.9155 16.0056 18.9235 15.9287 18.9235H15.9201V18.8474H15.9658C16.0739 18.8448 16.1173 18.8434 16.1201 18.691L16.1197 17.6492H15.8072V17.6318H16.137V18.691C16.137 18.8488 16.0735 18.8643 15.9658 18.8646H15.937V18.9067C16.0146 18.9059 16.1463 18.8988 16.2601 18.8988C16.3625 18.8988 16.4935 18.9059 16.571 18.9067V18.8647H16.5421C16.4478 18.8643 16.3714 18.8415 16.3712 18.687V17.6318H16.7013C16.8329 17.6324 16.8501 17.7446 16.8538 17.8175L16.8966 17.8018C16.8966 17.7506 16.8968 17.6992 16.9006 17.6477C16.906 17.597 16.9133 17.5466 16.9206 17.4965L16.8909 17.4914C16.882 17.5486 16.8266 17.5518 16.7778 17.551H15.7559C15.7097 17.5515 15.6597 17.5488 15.6418 17.4936H15.6098C15.6095 17.5471 15.6055 17.6004 15.5978 17.6534C15.5926 17.7075 15.5829 17.7596 15.5757 17.8113H15.6177C15.6437 17.6742 15.6606 17.6298 15.8072 17.6318V17.6492C15.6618 17.6516 15.6651 17.6763 15.633 17.8217L15.6315 17.8283H15.5559L15.5571 17.8185C15.5653 17.763 15.5751 17.7082 15.5808 17.6513C15.5888 17.5964 15.5926 17.5418 15.5926 17.4854V17.4768H15.6546L15.6562 17.483C15.67 17.5326 15.7057 17.5328 15.7559 17.5337L15.7658 17.5339H16.7778C16.8319 17.5329 16.8714 17.532 16.8749 17.4808L16.8754 17.4714L16.8846 17.4733L16.9402 17.4821L16.9388 17.4906C16.9306 17.5433 16.9234 17.5962 16.9173 17.6492C16.9133 17.7015 16.9133 17.7548 16.9133 17.8078V17.8139L16.9078 17.8161L16.8382 17.8414L16.8379 17.8299C16.8329 17.7561 16.8251 17.6491 16.7013 17.6491H16.3881V18.687C16.3902 18.8353 16.4488 18.8455 16.5421 18.8474H16.588V18.9234H16.5796V18.9235ZM17.0028 18.8558H17.0302C17.101 18.8558 17.1751 18.8463 17.1751 18.7438V17.7137C17.1751 17.6111 17.101 17.6014 17.0303 17.6014H17.0028V17.5424C17.0793 17.5424 17.1968 17.5502 17.2926 17.5502C17.391 17.5502 17.5086 17.5424 17.6009 17.5424V17.6014H17.5733C17.5028 17.6014 17.4281 17.6111 17.4281 17.7137V18.7439C17.4281 18.8463 17.5028 18.8559 17.5733 18.8559H17.6009V18.9151C17.5066 18.9151 17.3889 18.9074 17.2911 18.9074C17.1949 18.9074 17.0793 18.9152 17.0028 18.9152V18.8558Z" fill="#211E1F"/>
<path d="M17.6008 18.9235C17.5061 18.9235 17.3887 18.9155 17.2909 18.9155C17.1951 18.9155 17.0793 18.9235 17.0027 18.9235H16.9941V18.8474H17.0301C17.101 18.8463 17.166 18.8402 17.1663 18.7439V17.7137C17.166 17.6177 17.101 17.6111 17.0301 17.6098H16.9941V17.534H17.0027C17.0793 17.534 17.197 17.5414 17.2925 17.5414C17.3903 17.5414 17.5079 17.534 17.6008 17.534H17.6091V17.6098H17.5733C17.5017 17.6111 17.4373 17.6177 17.4364 17.7137V18.7439C17.4373 18.8402 17.5017 18.8463 17.5733 18.8474H17.6091V18.9234H17.6008V18.9235ZM17.592 18.9063V18.8647H17.5733C17.503 18.8647 17.4198 18.8523 17.4198 18.7439V17.7137C17.4198 17.605 17.503 17.5927 17.5733 17.5927H17.592V17.551C17.5014 17.5515 17.3881 17.5586 17.2925 17.5586C17.1997 17.5586 17.0873 17.5515 17.0113 17.551V17.5927H17.0302C17.0999 17.5927 17.1834 17.605 17.1837 17.7137V18.7439C17.1834 18.8523 17.0999 18.8647 17.0302 18.8647H17.0113V18.9063C17.0869 18.9055 17.1978 18.8988 17.2909 18.8988C17.386 18.8988 17.4995 18.9059 17.5919 18.9063H17.592ZM18.3826 17.513C18.8005 17.513 19.1337 17.7729 19.1337 18.1916C19.1337 18.644 18.8102 18.9446 18.3929 18.9446C17.9768 18.9446 17.6594 18.6614 17.6594 18.2386C17.6594 17.8297 17.9749 17.513 18.3826 17.513ZM18.4122 18.8581C18.7927 18.8581 18.8589 18.5215 18.8589 18.2348C18.8589 17.9474 18.7045 17.5994 18.3789 17.5994C18.0357 17.5994 17.9338 17.9062 17.9338 18.1695C17.9338 18.5215 18.0945 18.8581 18.4122 18.8581Z" fill="#211E1F"/>
<path d="M17.6509 18.2386C17.6517 17.825 17.9709 17.505 18.3827 17.5044V17.5213C17.9798 17.5213 17.6678 17.8339 17.6675 18.2386C17.6684 18.6567 17.9813 18.9357 18.393 18.9358C18.8062 18.9357 19.1251 18.6392 19.1258 18.1912C19.1254 17.7778 18.7972 17.5218 18.3827 17.5213V17.5044C18.8039 17.5046 19.1415 17.7671 19.1424 18.1912C19.142 18.6483 18.8143 18.9522 18.393 18.953C17.9737 18.9522 17.6517 18.6661 17.6509 18.2386V18.2386ZM17.9255 18.1695C17.9261 17.905 18.0291 17.5906 18.3791 17.5906C18.7119 17.5914 18.8674 17.9459 18.8679 18.2348C18.8673 18.5216 18.8 18.8662 18.4126 18.8662V18.8496C18.7854 18.8491 18.8499 18.5216 18.8509 18.2348C18.8509 17.9498 18.6978 17.6084 18.3791 17.608C18.0427 17.6084 17.9431 17.9076 17.9426 18.1695C17.9428 18.5198 18.102 18.8488 18.4126 18.8496V18.8662C18.087 18.8658 17.9261 18.5236 17.9255 18.1694V18.1695ZM20.4551 18.5276L20.4591 18.5238V17.7864C20.4591 17.625 20.3471 17.6015 20.2882 17.6015H20.2458V17.5424C20.3377 17.5424 20.4278 17.5502 20.5197 17.5502C20.6003 17.5502 20.6806 17.5424 20.7612 17.5424V17.6015H20.7316C20.6494 17.6015 20.5571 17.6171 20.5571 17.8511V18.7462C20.5571 18.8149 20.559 18.8836 20.569 18.9446H20.4946L19.4846 17.8158V18.626C19.4846 18.7972 19.5178 18.8559 19.6687 18.8559H19.7023V18.9152C19.6178 18.9152 19.5338 18.9074 19.4494 18.9074C19.3612 18.9074 19.2708 18.9152 19.1826 18.9152V18.8559H19.2102C19.3457 18.8559 19.3863 18.7638 19.3863 18.6066V17.7782C19.3863 17.6682 19.2966 17.6014 19.2081 17.6014H19.1825V17.5425C19.257 17.5425 19.3336 17.5502 19.4079 17.5502C19.4668 17.5502 19.5235 17.5425 19.5826 17.5425L20.4551 18.5276Z" fill="#211E1F"/>
<path d="M20.5689 18.953L20.4878 18.9502L19.493 17.8379V18.6261C19.4951 18.797 19.521 18.8454 19.6683 18.8472H19.7107V18.9236H19.7022C19.6172 18.9236 19.533 18.9156 19.4493 18.9156C19.3613 18.9156 19.2713 18.9236 19.1822 18.9236H19.1741V18.8472H19.21C19.3393 18.8468 19.3764 18.7634 19.378 18.6066V17.7782C19.3778 17.6735 19.2922 17.61 19.2079 17.6098H19.1741V17.534H19.1822C19.2574 17.534 19.3338 17.5415 19.4078 17.5415C19.466 17.5415 19.5226 17.534 19.5889 17.5369L20.4503 18.5098V17.7866C20.4498 17.6301 20.3454 17.6112 20.2879 17.6098H20.2365V17.5341H20.2453C20.3376 17.5341 20.428 17.5416 20.5193 17.5416C20.5998 17.5416 20.6797 17.5341 20.761 17.5341H20.7694V17.6098H20.7314C20.6507 17.6122 20.5673 17.6195 20.5656 17.8512V18.7461C20.5656 18.8148 20.5671 18.8834 20.5766 18.9435L20.5782 18.953H20.5689ZM20.4945 18.9358H20.5586C20.55 18.8768 20.5486 18.8114 20.5486 18.746V17.8512C20.5486 17.6147 20.6474 17.5934 20.7314 17.5926H20.7526V17.551C20.6753 17.5516 20.5978 17.5587 20.5194 17.5587C20.4302 17.5587 20.3424 17.5516 20.2537 17.551V17.5926H20.2881C20.3489 17.5934 20.4671 17.6202 20.4671 17.7866L20.465 18.5297L20.4613 18.5337L20.455 18.5401L19.5824 17.5511C19.5246 17.5511 19.4674 17.5587 19.4078 17.5587C19.3357 17.5587 19.2621 17.5516 19.1907 17.5511V17.5927H19.208C19.3 17.5934 19.3948 17.663 19.3948 17.7782V18.6066C19.3948 18.7638 19.351 18.8644 19.21 18.865L19.1907 18.8648V18.9064C19.2758 18.906 19.3631 18.8989 19.4493 18.8989C19.531 18.8989 19.6122 18.906 19.6937 18.9064V18.865H19.6683C19.5145 18.8648 19.476 18.797 19.476 18.6261V17.7936L20.4944 18.9358H20.4945ZM20.4504 18.5238V18.5231L20.4488 18.5216L20.4504 18.5238ZM21.0761 18.6339C21.0569 18.7006 21.0331 18.7522 21.0331 18.7872C21.0331 18.8464 21.1157 18.856 21.18 18.856H21.2018V18.9152C21.1228 18.9105 21.0436 18.9079 20.9645 18.9074C20.8936 18.9074 20.8234 18.911 20.753 18.9153V18.8559H20.7642C20.841 18.8559 20.906 18.8108 20.935 18.7281L21.249 17.8257C21.2743 17.7529 21.3098 17.6545 21.3213 17.5817C21.3835 17.5594 21.4433 17.5311 21.5 17.4972C21.5056 17.4952 21.5096 17.4931 21.5155 17.4931C21.5214 17.4931 21.525 17.4931 21.529 17.4993C21.535 17.5148 21.5411 17.5326 21.547 17.5483L21.9075 18.577C21.931 18.6457 21.9544 18.7184 21.9802 18.7775C22.0038 18.8326 22.045 18.8559 22.1095 18.8559H22.1215V18.9153C22.0313 18.9105 21.941 18.9079 21.8506 18.9075C21.7526 18.908 21.6545 18.9106 21.5566 18.9153V18.8559H21.5783C21.6231 18.8559 21.7 18.8483 21.7 18.7991C21.7 18.7735 21.6822 18.7206 21.6603 18.6574L21.5842 18.4293H21.139L21.0761 18.634V18.6339ZM21.3627 17.7627H21.3587L21.1762 18.3193H21.5431L21.3627 17.7627Z" fill="#211E1F"/>
<path d="M22.1205 18.9235C22.0323 18.92 21.9442 18.9156 21.8505 18.9156C21.755 18.9156 21.6569 18.92 21.5568 18.9236L21.5481 18.9241V18.8474H21.5778C21.6234 18.8474 21.6911 18.8368 21.6912 18.799C21.6916 18.7766 21.674 18.723 21.6521 18.6601L21.5776 18.4377H21.1448L21.0841 18.6364C21.0646 18.7038 21.0412 18.7554 21.0416 18.7872C21.0416 18.8354 21.115 18.8474 21.1799 18.8474H21.2098V18.9241L21.201 18.9235C21.1226 18.92 21.0424 18.9156 20.9644 18.9156C20.8941 18.9156 20.8236 18.92 20.7529 18.9236L20.7444 18.9241V18.8474H20.7641C20.8373 18.8472 20.8985 18.805 20.927 18.7253L21.2408 17.8228C21.2658 17.7498 21.3011 17.6518 21.3185 17.5737C21.3801 17.5522 21.4589 17.513 21.4969 17.489C21.5021 17.4872 21.5073 17.485 21.5153 17.485C21.5197 17.4845 21.524 17.4854 21.5279 17.4874C21.5317 17.4894 21.5349 17.4925 21.5369 17.4963C21.5427 17.5118 21.5485 17.5296 21.5549 17.5456L21.9155 18.5741C21.9389 18.643 21.9625 18.7157 21.9878 18.7742C22.0109 18.8263 22.0466 18.8469 22.1091 18.8474H22.1295V18.9241L22.1205 18.9235ZM21.5649 18.9062C21.6618 18.9026 21.7573 18.8987 21.8505 18.8987C21.9417 18.8987 22.0273 18.9026 22.1127 18.9059L22.1124 18.8649H22.1092C22.0428 18.865 21.9965 18.8389 21.9721 18.7809C21.9463 18.7212 21.9229 18.6482 21.8995 18.5796L21.5387 17.551C21.5328 17.5354 21.5269 17.5174 21.5221 17.5042C21.5205 17.5017 21.5206 17.5017 21.5191 17.5017H21.5154C21.5113 17.5017 21.5091 17.503 21.5044 17.5044C21.4662 17.5286 21.3876 17.5678 21.3296 17.583C21.3174 17.6574 21.2818 17.7554 21.2565 17.8284L20.9426 18.731C20.9129 18.8163 20.8443 18.865 20.7641 18.8649H20.7613V18.9059C20.8287 18.9026 20.8961 18.8987 20.9644 18.8987C21.0404 18.8987 21.1177 18.9026 21.1932 18.9059V18.8649H21.1798C21.1161 18.8641 21.0266 18.8571 21.0243 18.7872C21.0247 18.7482 21.0491 18.6982 21.068 18.6314L21.076 18.6341L21.068 18.6312L21.1325 18.421H21.5898L21.6684 18.6546C21.69 18.7179 21.7078 18.7702 21.7078 18.799C21.7049 18.8594 21.6227 18.8637 21.5778 18.8649H21.5649L21.5649 18.9062ZM21.1644 18.3275L21.3524 17.7541H21.3626H21.3687L21.5541 18.3275H21.1644ZM21.1879 18.3106H21.5308L21.3603 17.7839L21.1879 18.3106ZM21.3545 17.7651L21.3584 17.7636L21.3544 17.7651H21.3545ZM22.6154 18.7224C22.6154 18.8011 22.6698 18.8246 22.7326 18.8326C22.813 18.8386 22.9013 18.8386 22.9918 18.8286C23.0739 18.8187 23.1446 18.7715 23.1797 18.7224C23.2109 18.679 23.2286 18.624 23.2405 18.5808H23.2973C23.2758 18.6928 23.2483 18.8032 23.2247 18.9152C23.0525 18.9152 22.8797 18.9074 22.7073 18.9074C22.5345 18.9074 22.3623 18.9152 22.1897 18.9152V18.8559H22.2167C22.2877 18.8559 22.3644 18.8463 22.3644 18.7243V17.7137C22.3644 17.6111 22.2876 17.6015 22.2167 17.6015H22.1897V17.5425C22.2933 17.5425 22.3955 17.5502 22.4992 17.5502C22.5995 17.5502 22.6974 17.5425 22.7975 17.5425V17.6015H22.7481C22.6739 17.6015 22.6154 17.6037 22.6154 17.7076V18.7224Z" fill="#211E1F"/>
<path d="M23.2247 18.9235C23.0519 18.9235 22.8794 18.9157 22.7074 18.9157C22.5347 18.9157 22.3622 18.9235 22.1894 18.9235H22.1811V18.8475H22.2167C22.2879 18.8458 22.355 18.841 22.3558 18.7243V17.7134C22.355 17.6178 22.2882 17.6112 22.2167 17.6098H22.1811V17.534H22.1894C22.2937 17.534 22.3958 17.5415 22.4994 17.5415C22.599 17.5415 22.6968 17.534 22.7975 17.534H22.8056V17.6098H22.7483C22.6723 17.612 22.625 17.6085 22.6235 17.7076V18.7225C22.6241 18.7957 22.6719 18.8154 22.7331 18.8241C22.7678 18.8265 22.8041 18.828 22.8419 18.828C22.8899 18.828 22.9398 18.8257 22.9904 18.8202C23.0703 18.8108 23.1391 18.7646 23.1728 18.7177C23.203 18.6757 23.2204 18.6217 23.2321 18.5787L23.2339 18.5722H23.3077L23.3059 18.5826C23.2838 18.695 23.2569 18.805 23.2331 18.9169L23.2315 18.9236L23.2247 18.9235ZM23.2177 18.9064C23.2404 18.7998 23.2661 18.6954 23.2872 18.5891H23.2469C23.2346 18.6319 23.2173 18.6846 23.1864 18.7276C23.1498 18.7786 23.0772 18.8266 22.9922 18.8371C22.9409 18.8424 22.89 18.8451 22.8418 18.8451C22.8039 18.8451 22.7671 18.8434 22.7316 18.8409C22.6678 18.8338 22.606 18.8065 22.6062 18.7225V17.7075C22.6062 17.5983 22.6752 17.5927 22.7483 17.5927H22.7889V17.551C22.6922 17.5515 22.597 17.5587 22.4994 17.5587C22.3978 17.5587 22.2986 17.5515 22.198 17.551V17.5927H22.2167C22.2867 17.5927 22.3724 17.605 22.3724 17.7132V18.7242C22.3724 18.8514 22.2871 18.8647 22.2167 18.8647H22.198V18.9063C22.3675 18.9062 22.537 18.8988 22.7074 18.8988C22.8778 18.8988 23.048 18.9062 23.2177 18.9063V18.9064ZM23.2735 17.4866C23.3917 17.4866 23.4799 17.5777 23.4799 17.6943C23.4799 17.8106 23.3917 17.9007 23.2735 17.9007C23.1554 17.9007 23.067 17.8106 23.067 17.6943C23.067 17.5777 23.1554 17.4866 23.2735 17.4866ZM23.2735 17.8622C23.3658 17.8622 23.4369 17.7831 23.4369 17.6943C23.4369 17.605 23.367 17.5253 23.2735 17.5253C23.1807 17.5253 23.1097 17.605 23.1097 17.6943C23.1097 17.7831 23.1807 17.8622 23.2735 17.8622ZM23.1707 17.8034V17.7932C23.1962 17.7897 23.2008 17.7905 23.2008 17.7746V17.6214C23.2008 17.5998 23.1984 17.5925 23.1717 17.5936V17.5831H23.2773C23.3138 17.5831 23.3471 17.6004 23.3471 17.6381C23.3471 17.6689 23.3267 17.6917 23.2983 17.7005L23.3322 17.7479C23.348 17.7695 23.3658 17.7897 23.3777 17.7967V17.8034H23.3374C23.3182 17.8034 23.3013 17.7626 23.2632 17.708H23.2403V17.7768C23.2403 17.7904 23.2451 17.7896 23.2706 17.7932V17.8034H23.1707ZM23.2403 17.6943H23.2647C23.2914 17.6943 23.3038 17.6741 23.3038 17.6415C23.3038 17.6085 23.2846 17.5969 23.2634 17.5969H23.2403V17.6943ZM6.78344 14.6329C6.78344 14.3078 6.6144 14.3292 6.45232 14.3257V14.2318C6.5928 14.2387 6.7368 14.2387 6.87752 14.2387C7.0288 14.2387 7.23432 14.2318 7.50096 14.2318C8.43392 14.2318 8.942 14.8568 8.942 15.4968C8.942 15.8547 8.7332 16.7544 7.4576 16.7544C7.27392 16.7544 7.1044 16.7474 6.9352 16.7474C6.77304 16.7474 6.6144 16.751 6.45232 16.7545V16.6606C6.66832 16.6388 6.77312 16.6316 6.78336 16.3858V14.633L6.78344 14.6329ZM7.13664 16.3281C7.13664 16.6064 7.33504 16.6389 7.51144 16.6389C8.29 16.6389 8.5456 16.0497 8.5456 15.5111C8.5456 14.8355 8.11312 14.3476 7.41784 14.3476C7.26984 14.3476 7.20184 14.3582 7.13664 14.3621V16.3281ZM9.06848 16.6606H9.13672C9.23752 16.6606 9.30968 16.6606 9.30968 16.5411V15.5618C9.30968 15.403 9.25568 15.3809 9.12232 15.309V15.2511C9.2916 15.2001 9.4936 15.1319 9.50776 15.121C9.5332 15.1066 9.55464 15.1027 9.57272 15.1027C9.59056 15.1027 9.59808 15.1246 9.59808 15.1536V16.5411C9.59808 16.6606 9.67728 16.6606 9.77816 16.6606H9.83936V16.7546C9.71672 16.7546 9.59056 16.7474 9.46112 16.7474C9.33144 16.7474 9.2016 16.751 9.06848 16.7546V16.6606ZM9.45392 14.5462C9.36008 14.5462 9.27744 14.4596 9.27744 14.3656C9.27744 14.2751 9.36392 14.1918 9.45392 14.1918C9.54728 14.1918 9.63056 14.268 9.63056 14.3656C9.63056 14.4632 9.55096 14.5462 9.45392 14.5462ZM10.1817 15.5834C10.1817 15.4498 10.1418 15.4138 9.97288 15.345V15.2765C10.1277 15.2259 10.2753 15.1789 10.4483 15.1028C10.459 15.1028 10.4696 15.1102 10.4696 15.1389V15.3739C10.6754 15.2259 10.852 15.1027 11.0937 15.1027C11.3996 15.1027 11.5077 15.3269 11.5077 15.6087V16.5411C11.5077 16.6606 11.5869 16.6606 11.6879 16.6606H11.7528V16.7546C11.6264 16.7546 11.5003 16.7474 11.3709 16.7474C11.241 16.7474 11.1112 16.751 10.9817 16.7546V16.6606H11.0463C11.1475 16.6606 11.2191 16.6606 11.2191 16.5411V15.6053C11.2191 15.399 11.0937 15.298 10.8879 15.298C10.7728 15.298 10.589 15.3919 10.4696 15.4716V16.541C10.4696 16.6606 10.5493 16.6606 10.6503 16.6606H10.715V16.7546C10.589 16.7546 10.4627 16.7474 10.333 16.7474C10.2034 16.7474 10.0734 16.751 9.94384 16.7546V16.6606H10.0089C10.1097 16.6606 10.1817 16.6606 10.1817 16.541V15.5834ZM12.0268 15.757C12.0193 15.7897 12.0193 15.8438 12.0268 15.9668C12.048 16.31 12.2684 16.5918 12.5562 16.5918C12.7546 16.5918 12.9098 16.4834 13.043 16.3498L13.0932 16.4006C12.9274 16.6209 12.722 16.8087 12.4268 16.8087C11.8537 16.8087 11.7384 16.252 11.7384 16.021C11.7384 15.3125 12.2139 15.1027 12.466 15.1027C12.758 15.1027 13.0718 15.287 13.0751 15.6701C13.0751 15.692 13.0751 15.7134 13.0718 15.7354L13.0391 15.757H12.0268ZM12.6647 15.6414C12.7546 15.6414 12.7652 15.5943 12.7652 15.551C12.7652 15.3667 12.6535 15.2185 12.4516 15.2185C12.2321 15.2185 12.0807 15.3809 12.0375 15.6414H12.6647ZM13.1581 16.6606H13.2554C13.356 16.6606 13.4281 16.6606 13.4281 16.5411V15.5257C13.4281 15.4137 13.295 15.3919 13.2408 15.363V15.309C13.5038 15.1968 13.6481 15.1027 13.6808 15.1027C13.7022 15.1027 13.7128 15.1137 13.7128 15.1499V15.4751H13.7204C13.8103 15.3343 13.9619 15.1027 14.1814 15.1027C14.2716 15.1027 14.3868 15.1641 14.3868 15.2943C14.3868 15.3919 14.3185 15.479 14.2177 15.479C14.1055 15.479 14.1055 15.3919 13.9796 15.3919C13.9182 15.3919 13.7166 15.4751 13.7166 15.692V16.5411C13.7166 16.6606 13.7886 16.6606 13.8896 16.6606H14.0912V16.7546C13.893 16.751 13.7422 16.7474 13.587 16.7474C13.4393 16.7474 13.2878 16.751 13.1582 16.7546L13.1581 16.6606ZM14.5454 16.252C14.5924 16.4906 14.7363 16.6931 14.9995 16.6931C15.2117 16.6931 15.291 16.563 15.291 16.4366C15.291 16.01 14.5058 16.1474 14.5058 15.5655C14.5058 15.363 14.6681 15.1027 15.0642 15.1027C15.1794 15.1027 15.3342 15.1355 15.4747 15.2078L15.5002 15.5762H15.4172C15.3812 15.3487 15.2553 15.2186 15.0244 15.2186C14.8803 15.2186 14.7435 15.3018 14.7435 15.457C14.7435 15.8802 15.5794 15.7498 15.5794 16.3171C15.5794 16.5555 15.3884 16.8088 14.9595 16.8088C14.8154 16.8088 14.6462 16.7582 14.5202 16.6861L14.4804 16.2703L14.5454 16.252ZM18.833 14.8859H18.7432C18.6746 14.4633 18.3756 14.2932 17.9722 14.2932C17.5575 14.2932 16.9558 14.5714 16.9558 15.4387C16.9558 16.1693 17.475 16.6931 18.0297 16.6931C18.3863 16.6931 18.682 16.4474 18.7541 16.0678L18.8367 16.0894L18.7541 16.617C18.6027 16.7112 18.1955 16.8087 17.9574 16.8087C17.1146 16.8087 16.5814 16.263 16.5814 15.4498C16.5814 14.7088 17.2406 14.1774 17.9469 14.1774C18.2386 14.1774 18.5197 14.2717 18.7971 14.3694L18.833 14.8859ZM18.963 16.6606H19.0313C19.1323 16.6606 19.2046 16.6606 19.2046 16.5411V14.5283C19.2046 14.2932 19.1506 14.286 19.0134 14.2463V14.1885C19.1576 14.1416 19.309 14.0765 19.3846 14.033C19.4238 14.0114 19.453 13.9931 19.4637 13.9931C19.4857 13.9931 19.4929 14.015 19.4929 14.044V16.5411C19.4929 16.6606 19.572 16.6606 19.673 16.6606H19.7338V16.7546C19.6118 16.7546 19.4857 16.7474 19.3558 16.7474C19.2262 16.7474 19.0966 16.751 18.963 16.7546V16.6606ZM21.2766 16.5555C21.2766 16.6209 21.3161 16.6244 21.3772 16.6244C21.4206 16.6244 21.4745 16.6209 21.5214 16.6209V16.6969C21.3664 16.7113 21.0709 16.7873 21.0024 16.8087L20.9843 16.7978V16.5054C20.7683 16.6823 20.6024 16.8087 20.3464 16.8087C20.1518 16.8087 19.9501 16.6823 19.9501 16.379V15.4534C19.9501 15.3595 19.9357 15.269 19.7343 15.2511V15.1823C19.8642 15.1788 20.1518 15.1571 20.1989 15.1571C20.2389 15.1571 20.2389 15.1824 20.2389 15.2619V16.1941C20.2389 16.3027 20.2389 16.6134 20.5521 16.6134C20.6745 16.6134 20.8366 16.5195 20.9878 16.3934V15.4206C20.9878 15.3486 20.815 15.309 20.6856 15.2727V15.2077C21.0094 15.1859 21.2116 15.1571 21.2474 15.1571C21.2766 15.1571 21.2766 15.1823 21.2766 15.2223V16.5555ZM21.9936 15.363C22.1376 15.2402 22.332 15.1027 22.5304 15.1027C22.9486 15.1027 23.2005 15.4682 23.2005 15.8618C23.2005 16.3352 22.8547 16.8087 22.3391 16.8087C22.0726 16.8087 21.9322 16.7219 21.8383 16.6823L21.7305 16.7652L21.655 16.7257C21.687 16.5125 21.7054 16.3027 21.7054 16.0824V14.5283C21.7054 14.2932 21.651 14.286 21.5142 14.2463V14.1885C21.6587 14.1416 21.8096 14.0765 21.8854 14.033C21.925 14.0114 21.9537 13.9931 21.9649 13.9931C21.9863 13.9931 21.9935 14.015 21.9935 14.044L21.9936 15.363ZM21.9936 16.346C21.9936 16.4834 22.1231 16.715 22.3646 16.715C22.7502 16.715 22.9122 16.3352 22.9122 16.0134C22.9122 15.6232 22.617 15.298 22.3359 15.298C22.2022 15.298 22.0908 15.3849 21.9935 15.4682L21.9936 16.346ZM6.44824 18.8559H6.47584C6.54624 18.8559 6.62072 18.8463 6.62072 18.7439V17.7137C6.62072 17.6111 6.54624 17.6014 6.47584 17.6014H6.44824V17.5424C6.5248 17.5424 6.6424 17.5502 6.7388 17.5502C6.83664 17.5502 6.95416 17.5424 7.04632 17.5424V17.6014H7.01872C6.9484 17.6014 6.87376 17.6111 6.87376 17.7137V18.7439C6.87376 18.8463 6.9484 18.8559 7.01872 18.8559H7.04632V18.9152C6.95224 18.9152 6.83432 18.9074 6.73656 18.9074C6.64048 18.9074 6.5248 18.9152 6.44824 18.9152V18.8559Z" fill="#211E1F"/>
<path d="M7.04642 18.9235C6.9517 18.9235 6.83426 18.9156 6.73658 18.9156C6.64074 18.9156 6.52546 18.9235 6.44834 18.9235H6.43994V18.8474H6.47586C6.5469 18.8458 6.61162 18.8401 6.61234 18.7439V17.7137C6.61162 17.6175 6.5469 17.6111 6.47586 17.6098H6.43994V17.5337H6.44834C6.52546 17.5337 6.6429 17.5414 6.73874 17.5414C6.83634 17.5414 6.9537 17.5337 7.04642 17.5337H7.05522V17.6098H7.01898C6.94786 17.6111 6.88274 17.6175 6.88234 17.7137V18.7439C6.88274 18.8401 6.94786 18.8458 7.01898 18.8474H7.05514V18.9234H7.04642V18.9235ZM7.03802 18.9067V18.8647H7.01898C6.94898 18.8647 6.86562 18.8526 6.86522 18.7439V17.7137C6.86562 17.605 6.94898 17.5927 7.01898 17.5927H7.03802V17.551C6.94746 17.551 6.83394 17.5586 6.73882 17.5586C6.64562 17.5586 6.5329 17.5515 6.45706 17.551V17.5927H6.47578C6.5457 17.5927 6.62938 17.605 6.62938 17.7137V18.7439C6.62938 18.8526 6.5457 18.8647 6.47578 18.8647H6.45706V18.9067C6.5329 18.9059 6.6437 18.8988 6.73658 18.8988C6.83202 18.8988 6.94554 18.9062 7.03802 18.9067ZM8.39338 18.5275L8.39738 18.5237V17.7863C8.39738 17.6249 8.28538 17.6015 8.22674 17.6015H8.18346V17.5423C8.27578 17.5423 8.36586 17.5502 8.45794 17.5502C8.53826 17.5502 8.61906 17.5424 8.6993 17.5424V17.6014H8.66994C8.58738 17.6014 8.49522 17.6171 8.49522 17.851V18.7461C8.49522 18.8149 8.49722 18.8835 8.5069 18.9445H8.43226L7.42274 17.8157V18.626C7.42274 18.7971 7.45578 18.8558 7.60698 18.8558H7.64018V18.9152C7.55602 18.9152 7.47186 18.9074 7.38738 18.9074C7.29938 18.9074 7.20914 18.9152 7.12082 18.9152V18.8558H7.14826C7.28354 18.8558 7.32458 18.7637 7.32458 18.6065V17.7782C7.32458 17.6682 7.23418 17.6014 7.14634 17.6014H7.12074V17.5424C7.1953 17.5424 7.2717 17.5502 7.3461 17.5502C7.40498 17.5502 7.46194 17.5424 7.52066 17.5424L8.39338 18.5275Z" fill="#211E1F"/>
<path d="M8.50686 18.9531L8.42606 18.9501L7.43102 17.8379V18.626C7.43342 18.797 7.45934 18.8455 7.60702 18.8474H7.64902V18.9235H7.64022C7.55542 18.9235 7.47102 18.9156 7.38742 18.9156C7.29958 18.9156 7.20958 18.9236 7.12062 18.9236H7.11206V18.8474H7.14822C7.27782 18.8468 7.31478 18.7634 7.31622 18.6066V17.7783C7.31598 17.6736 7.23038 17.6101 7.1463 17.6098H7.11206V17.534H7.12062C7.19558 17.534 7.27238 17.5415 7.3459 17.5415C7.4043 17.5415 7.4611 17.534 7.52718 17.5369L8.38878 18.5097V17.7865C8.38774 17.63 8.28374 17.6112 8.22662 17.6098H8.1747V17.534H8.18342C8.27606 17.534 8.3663 17.5415 8.4579 17.5415C8.53774 17.5415 8.61806 17.534 8.6991 17.534H8.70766V17.6098H8.6699C8.58902 17.6122 8.5059 17.6192 8.50366 17.8511V18.746C8.50366 18.8147 8.50566 18.8834 8.51518 18.943L8.5171 18.9531H8.50686ZM8.43246 18.9358H8.49726C8.48846 18.8767 8.48686 18.8113 8.48686 18.746V17.8511C8.48686 17.6151 8.5855 17.5927 8.6699 17.5927H8.69062V17.551C8.61334 17.5516 8.5359 17.5586 8.45798 17.5586C8.36822 17.5586 8.28094 17.5516 8.19214 17.551L8.19206 17.5927H8.2267C8.28694 17.5927 8.4059 17.6198 8.4059 17.7865L8.40318 18.5296L8.39918 18.5337L8.39262 18.5398L7.52062 17.551C7.46246 17.551 7.40566 17.5586 7.34598 17.5586C7.27398 17.5586 7.20046 17.5516 7.12942 17.551L7.12894 17.5927H7.14638C7.23838 17.5927 7.33294 17.6632 7.33294 17.7783V18.6065C7.33294 18.7637 7.28926 18.8643 7.1483 18.8649L7.12942 18.8643V18.9067C7.21438 18.9059 7.30166 18.8988 7.38742 18.8988C7.46926 18.8988 7.5507 18.906 7.63174 18.9068V18.8649H7.60694C7.4527 18.8643 7.41438 18.797 7.41414 18.626V17.7936L8.43246 18.9358ZM8.38886 18.5236V18.523L8.38726 18.5216L8.38886 18.5236ZM8.99286 17.6406C8.84558 17.6406 8.84006 17.6761 8.81062 17.8195H8.75174C8.7595 17.7646 8.76934 17.7096 8.77526 17.6523C8.78318 17.5973 8.78694 17.5424 8.78694 17.4854H8.83414C8.8499 17.5445 8.89894 17.5424 8.95206 17.5424H9.96342C10.0165 17.5424 10.0654 17.5406 10.0695 17.4814L10.1162 17.4893C10.1086 17.5424 10.1007 17.5955 10.0948 17.6486C10.0913 17.7017 10.0913 17.7549 10.0913 17.8078L10.0322 17.8298C10.0281 17.757 10.0184 17.6406 9.88718 17.6406H9.56558V18.687C9.56558 18.8386 9.6343 18.8559 9.72806 18.8559H9.7655V18.9152C9.68902 18.9152 9.55158 18.9074 9.44598 18.9074C9.32838 18.9074 9.19094 18.9152 9.11438 18.9152V18.8559H9.15174C9.25982 18.8559 9.31446 18.8462 9.31446 18.691V17.6406H8.99286Z" fill="#211E1F"/>
<path d="M9.76587 18.9235C9.68867 18.9235 9.55147 18.9156 9.44611 18.9156C9.32867 18.9156 9.19147 18.9235 9.11451 18.9235H9.10635V18.8474H9.15195C9.25995 18.8449 9.30347 18.8434 9.30595 18.691V17.6491H8.99291V17.6318H9.32283V18.691C9.32283 18.8487 9.25955 18.8646 9.15187 18.8648H9.12307V18.9062C9.20035 18.9058 9.33227 18.8987 9.44603 18.8987C9.54827 18.8987 9.67939 18.9058 9.75683 18.9062V18.8648H9.72819C9.63339 18.8646 9.55715 18.8414 9.55715 18.6869V17.6318H9.88723C10.0188 17.6323 10.036 17.7446 10.0403 17.8175L10.0826 17.8018C10.0826 17.7506 10.0829 17.6991 10.0864 17.6474C10.0921 17.5967 10.0993 17.5466 10.1067 17.4964L10.0767 17.4914C10.0676 17.5486 10.0126 17.5514 9.96315 17.551H8.94203C8.89595 17.551 8.84555 17.5487 8.82795 17.4938H8.79563C8.79539 17.5472 8.79163 17.6005 8.78403 17.6533C8.77835 17.7074 8.76939 17.7593 8.76203 17.8112H8.80403C8.82987 17.6742 8.84667 17.6298 8.99291 17.6318V17.6491C8.84803 17.6517 8.85107 17.6762 8.81915 17.8216L8.81763 17.8282H8.74219L8.74331 17.8181C8.75115 17.763 8.76107 17.7082 8.76691 17.6509C8.77507 17.5963 8.77891 17.5418 8.77891 17.4853V17.4767H8.84107L8.84243 17.4829C8.85587 17.5325 8.89219 17.5328 8.94203 17.5336H9.96339C10.018 17.5328 10.0578 17.532 10.0611 17.4806L10.0619 17.4713L10.0707 17.4732L10.1261 17.482L10.1249 17.4905C10.1167 17.5432 10.1096 17.5961 10.1035 17.6491C10.0995 17.7014 10.0995 17.7546 10.0995 17.8077V17.8138L10.0942 17.816L10.0247 17.8414L10.0242 17.8298C10.019 17.756 10.0112 17.649 9.88739 17.649H9.57443V18.6868C9.57619 18.8352 9.63491 18.8454 9.72827 18.8473H9.77427V18.9234H9.76595L9.76587 18.9235ZM10.1791 18.8558H10.2067C10.2771 18.8558 10.3517 18.8463 10.3517 18.7439V17.7137C10.3517 17.6111 10.2771 17.6014 10.2067 17.6014H10.1791V17.5424C10.2984 17.5424 10.5027 17.5502 10.6671 17.5502C10.8321 17.5502 11.0356 17.5424 11.1688 17.5424C11.1658 17.6427 11.1672 17.7431 11.1732 17.8432L11.114 17.859C11.1047 17.7313 11.0812 17.6291 10.8751 17.6291H10.6028V18.1442H10.8359C10.9535 18.1442 10.9791 18.0774 10.9907 17.971H11.0495C11.0416 18.1223 11.0416 18.274 11.0495 18.4254L10.9907 18.4371C10.9792 18.3192 10.9732 18.2426 10.8378 18.2426H10.6029V18.7006C10.6029 18.8286 10.7161 18.8286 10.8418 18.8286C11.0771 18.8286 11.1808 18.8126 11.2397 18.5888L11.2947 18.6022C11.2685 18.7057 11.2464 18.8101 11.2282 18.9152C11.1026 18.9152 10.877 18.9074 10.7007 18.9074C10.5239 18.9074 10.2909 18.9152 10.1791 18.9152L10.1791 18.8558Z" fill="#211E1F"/>
<path d="M11.2279 18.9235C11.1019 18.9235 10.8766 18.9155 10.7005 18.9155C10.5239 18.9155 10.2909 18.9235 10.1789 18.9235H10.1707V18.8475H10.2064C10.2775 18.8464 10.3419 18.8401 10.3429 18.744V17.7137C10.3419 17.6177 10.2775 17.6113 10.2064 17.6098H10.1707V17.534H10.1789C10.2986 17.534 10.5025 17.5415 10.6669 17.5415C10.8318 17.5415 11.0352 17.534 11.1687 17.534H11.1775L11.1771 17.5428C11.1757 17.5766 11.1751 17.6105 11.1752 17.6443C11.1752 17.7123 11.1771 17.7866 11.1811 17.8427L11.1814 17.8498L11.1748 17.8517L11.1059 17.8697L11.1055 17.8596C11.0939 17.732 11.077 17.6394 10.8751 17.6375H10.6109L10.6107 18.1353H10.8358C10.9486 18.1342 10.9689 18.0762 10.9822 17.9703L10.983 17.9626H11.0581L11.0579 17.9714C11.054 18.0479 11.0519 18.1246 11.0517 18.2013C11.0517 18.2757 11.0541 18.3503 11.0579 18.4252L11.0581 18.4322L11.051 18.4338L10.983 18.4474L10.9822 18.4382C10.9687 18.3182 10.9678 18.2524 10.8375 18.251L10.6109 18.2508V18.7006C10.6111 18.8201 10.7138 18.8194 10.8416 18.8201C11.0776 18.8187 11.1723 18.8073 11.2315 18.5863L11.2334 18.5784L11.2416 18.58L11.3044 18.5962L11.3025 18.6043C11.2772 18.7085 11.2537 18.8124 11.2361 18.9166L11.2345 18.9235H11.2279ZM11.2207 18.9064C11.2384 18.8065 11.2596 18.7072 11.2842 18.6087L11.2454 18.5989C11.1867 18.819 11.073 18.8386 10.8416 18.8371C10.7182 18.8371 10.5944 18.8371 10.5939 18.7006V18.234H10.8375C10.9744 18.2325 10.9884 18.3154 10.9981 18.4274L11.0405 18.4186C11.033 18.2724 11.033 18.1259 11.0405 17.9797L10.9981 17.9796C10.9872 18.082 10.9553 18.154 10.8357 18.1526H10.5939V17.6203H10.8751C11.0791 17.6189 11.1128 17.7245 11.1215 17.8482L11.1639 17.8367C11.1601 17.7727 11.1582 17.7085 11.1581 17.6443C11.1581 17.6106 11.1589 17.5789 11.16 17.551C11.0268 17.5516 10.8283 17.5586 10.6669 17.5586C10.5058 17.5586 10.3075 17.5516 10.1874 17.551V17.5927H10.2064C10.2763 17.5927 10.3598 17.605 10.36 17.7137V18.744C10.3598 18.8523 10.2763 18.8643 10.2064 18.8649H10.1874V18.9063C10.3018 18.9062 10.5282 18.8989 10.7005 18.8989C10.8734 18.8989 11.0942 18.9062 11.2207 18.9063V18.9064ZM11.5591 17.7508C11.5591 17.6074 11.4808 17.6014 11.4198 17.6014H11.3846V17.5422C11.4474 17.5422 11.5687 17.5502 11.6884 17.5502C11.806 17.5502 11.9003 17.5422 12.004 17.5422C12.2508 17.5422 12.4707 17.6093 12.4707 17.8888C12.4707 18.0654 12.3531 18.1736 12.1983 18.2348L12.5335 18.738C12.5883 18.8212 12.6274 18.8444 12.7236 18.8559V18.9152C12.6588 18.9152 12.5961 18.9074 12.5315 18.9074C12.4707 18.9074 12.4078 18.9152 12.3472 18.9152C12.1963 18.7166 12.0667 18.5041 11.9392 18.2778H11.8103V18.6988C11.8103 18.8504 11.8805 18.8559 11.9707 18.8559H12.006V18.9152C11.894 18.9152 11.7807 18.9074 11.6688 18.9074C11.5746 18.9074 11.4824 18.9152 11.3846 18.9152V18.8559H11.4198C11.4926 18.8559 11.5591 18.8229 11.5591 18.7499V17.7507L11.5591 17.7508ZM11.8103 18.207H11.9059C12.1021 18.207 12.2078 18.1323 12.2078 17.9002C12.2078 17.7254 12.0961 17.6132 11.9214 17.6132C11.8626 17.6132 11.8375 17.6194 11.8102 17.6211V18.207H11.8103Z" fill="#211E1F"/>
<path d="M12.7237 18.9235C12.658 18.9235 12.5956 18.9156 12.5311 18.9156C12.4713 18.9156 12.4087 18.9236 12.3404 18.9202C12.19 18.7224 12.0612 18.5112 11.9344 18.2865H11.8185V18.6986C11.8206 18.8466 11.8799 18.8453 11.9705 18.8474H12.0145V18.9236H12.0057C11.8937 18.9236 11.78 18.9156 11.6686 18.9156C11.5749 18.9156 11.483 18.9236 11.3846 18.9236H11.376V18.8474H11.4197C11.4905 18.847 11.5501 18.8162 11.5503 18.75V17.7508C11.5488 17.6112 11.4807 17.612 11.4197 17.61H11.376V17.5338H11.3845C11.4481 17.5338 11.569 17.5415 11.6885 17.5415C11.8055 17.5415 11.8997 17.5338 12.0041 17.5338C12.2512 17.5343 12.4788 17.6027 12.4794 17.8882C12.4794 18.0659 12.3624 18.1768 12.211 18.2386L12.5405 18.7334C12.5953 18.815 12.6294 18.8352 12.7249 18.8474L12.7321 18.8486V18.9236L12.7237 18.9235ZM11.8101 18.2694H11.9441L11.9464 18.2737C12.0741 18.4996 12.2029 18.7118 12.3473 18.9068C12.4071 18.9068 12.4701 18.8987 12.5311 18.8987C12.5937 18.8987 12.6541 18.9055 12.7152 18.9065V18.8634C12.6232 18.8519 12.5801 18.8244 12.5265 18.7427L12.1853 18.2307L12.1949 18.2267C12.3484 18.1662 12.4619 18.0611 12.4621 17.8882C12.4619 17.6154 12.2506 17.5522 12.0041 17.551C11.9007 17.551 11.8065 17.5588 11.6885 17.5588C11.5733 17.5588 11.457 17.5516 11.3929 17.551V17.5927H11.4197C11.4807 17.5929 11.5674 17.603 11.5674 17.7508V18.75C11.5674 18.8289 11.4936 18.8649 11.4197 18.865H11.3929V18.9065C11.4873 18.9062 11.5765 18.8987 11.6686 18.8987C11.7782 18.8987 11.8889 18.9062 11.9973 18.9065V18.865H11.9705C11.8811 18.8649 11.8014 18.8538 11.8014 18.6986V18.2694H11.81H11.8101ZM11.8101 18.2154H11.8014V17.6132L11.8089 17.6126C11.8357 17.6105 11.8622 17.6049 11.9215 17.6049C12.1001 17.6049 12.2162 17.7214 12.2165 17.9006C12.216 18.1354 12.1037 18.2152 11.906 18.2153H11.81L11.8101 18.2154ZM11.906 18.1984C12.1001 18.1968 12.1977 18.1292 12.1998 17.9006C12.1987 17.7288 12.0922 17.6222 11.9214 17.6215C11.8685 17.6215 11.8436 17.6264 11.8185 17.6286V18.1984H11.906ZM14.0548 18.5276L14.0584 18.5238V17.7864C14.0584 17.625 13.9468 17.6015 13.888 17.6015H13.845V17.5424C13.937 17.5424 14.0271 17.5502 14.1194 17.5502C14.1999 17.5502 14.28 17.5424 14.3609 17.5424V17.6015H14.3313C14.2489 17.6015 14.1568 17.6171 14.1568 17.8511V18.7462C14.1568 18.8149 14.1587 18.8836 14.1684 18.9446H14.094L13.0844 17.8158V18.626C13.0844 18.7972 13.1177 18.8559 13.2685 18.8559H13.3019V18.9152C13.2177 18.9152 13.1333 18.9074 13.0491 18.9074C12.9606 18.9074 12.8705 18.9152 12.7824 18.9152V18.8559H12.8096C12.945 18.8559 12.9862 18.7638 12.9862 18.6066V17.7782C12.9862 17.6682 12.8961 17.6014 12.808 17.6014H12.7824V17.5425C12.8566 17.5425 12.9334 17.5502 13.0078 17.5502C13.0662 17.5502 13.1233 17.5425 13.1822 17.5425L14.0548 18.5276Z" fill="#211E1F"/>
<path d="M14.1684 18.953L14.0876 18.9503L13.0926 17.838V18.626C13.0949 18.797 13.1207 18.8456 13.2686 18.8475H13.3102V18.9235H13.3015C13.2167 18.9235 13.1327 18.9155 13.0486 18.9155C12.961 18.9155 12.8705 18.9235 12.7822 18.9235H12.7734V18.8475H12.8094C12.9389 18.847 12.976 18.7634 12.9773 18.606V17.7782C12.9771 17.6734 12.8916 17.61 12.8078 17.6098H12.7734V17.5338H12.7822C12.857 17.5338 12.9338 17.5415 13.0077 17.5415C13.0653 17.5415 13.1222 17.5338 13.188 17.5365L14.0498 18.5098V17.7862C14.0493 17.63 13.9449 17.6106 13.8879 17.6098H13.8361V17.5338H13.8447C13.9374 17.5338 14.0277 17.5415 14.1193 17.5415C14.1993 17.5415 14.2796 17.5338 14.3604 17.5338H14.3689V17.6098H14.3313C14.2504 17.612 14.167 17.6193 14.165 17.8512V18.746C14.165 18.8148 14.1667 18.883 14.1766 18.9434L14.1778 18.953H14.1684ZM14.0939 18.9358H14.1583C14.1498 18.8768 14.1478 18.8114 14.1478 18.746V17.8512C14.148 17.6152 14.2472 17.5934 14.3313 17.5926H14.3518V17.551C14.2748 17.5516 14.1972 17.5587 14.1193 17.5587C14.0293 17.5587 13.9418 17.5516 13.853 17.551V17.5926H13.8879C13.9482 17.5934 14.0671 17.6198 14.0671 17.7862L14.0644 18.5297L14.0606 18.5337L14.0546 18.5401L13.182 17.5511C13.1238 17.5511 13.067 17.5587 13.0077 17.5587C12.9351 17.5587 12.8618 17.5516 12.7905 17.5511V17.5927H12.8078C12.8998 17.5934 12.9944 17.663 12.9944 17.7782V18.606C12.9944 18.7639 12.9501 18.8644 12.8095 18.865L12.7905 18.8648V18.9064C12.8751 18.906 12.9626 18.8989 13.0486 18.8989C13.1309 18.8989 13.2123 18.906 13.2934 18.9064V18.865H13.2686C13.1142 18.8648 13.0756 18.797 13.0753 18.6259V17.7939L14.0939 18.9358ZM14.0498 18.5238V18.5231L14.0482 18.5216L14.0498 18.5238ZM14.6761 18.6339C14.6562 18.7006 14.6326 18.7522 14.6326 18.7872C14.6326 18.8464 14.7151 18.856 14.7796 18.856H14.8014V18.9152C14.7223 18.9105 14.6431 18.9079 14.5638 18.9074C14.4933 18.9074 14.423 18.911 14.3524 18.9153V18.8559H14.3642C14.4406 18.8559 14.5055 18.8108 14.5344 18.7281L14.8485 17.8257C14.8738 17.7529 14.9094 17.6545 14.9213 17.5817C14.9837 17.5602 15.0622 17.5209 15.0994 17.4972C15.1054 17.4952 15.1089 17.4931 15.115 17.4931C15.1209 17.4931 15.1246 17.4931 15.129 17.4993C15.1347 17.5148 15.1404 17.5326 15.1467 17.5483L15.5074 18.577C15.5309 18.6457 15.5542 18.7184 15.5796 18.7775C15.6032 18.8326 15.6446 18.8559 15.7094 18.8559H15.721V18.9153C15.6309 18.9105 15.5407 18.9079 15.4506 18.9075C15.3544 18.9075 15.2562 18.911 15.1562 18.9153V18.8559H15.1779C15.2228 18.8559 15.2995 18.8483 15.2995 18.7991C15.2995 18.7735 15.2818 18.7206 15.2599 18.6574L15.1837 18.4293H14.7386L14.6761 18.634V18.6339ZM14.9622 17.7627H14.9582L14.7758 18.3193H15.1422L14.9622 17.7627Z" fill="#211E1F"/>
<path d="M15.7203 18.9235C15.6321 18.9195 15.5438 18.9155 15.4505 18.9155C15.3543 18.9155 15.2567 18.9195 15.1563 18.9235L15.1475 18.9241V18.8472H15.1777C15.2231 18.8472 15.2905 18.8368 15.2905 18.799C15.2911 18.7766 15.2734 18.7227 15.2518 18.6601L15.1772 18.4377H14.7447L14.6838 18.6364C14.6639 18.7034 14.6404 18.7554 14.6405 18.7874C14.6412 18.8354 14.7145 18.8472 14.7795 18.8472H14.8097V18.924L14.8009 18.9235C14.7224 18.9195 14.6423 18.9155 14.5641 18.9155C14.4938 18.9155 14.4232 18.9195 14.3529 18.9235L14.3438 18.9241V18.8472H14.364C14.437 18.8469 14.4979 18.8054 14.5262 18.7253L14.8402 17.8228C14.8658 17.7498 14.9012 17.6518 14.9181 17.5734C14.9801 17.5513 15.0398 17.523 15.0961 17.489C15.1016 17.4872 15.107 17.4845 15.115 17.4845C15.1193 17.4843 15.1236 17.4853 15.1274 17.4873C15.1312 17.4893 15.1344 17.4923 15.1366 17.496C15.1422 17.5122 15.1484 17.5296 15.1543 17.5456L15.5154 18.5741C15.5386 18.6431 15.562 18.7158 15.5875 18.7738C15.6102 18.8263 15.6463 18.847 15.7093 18.8472H15.7293V18.9241L15.7203 18.9235ZM15.1646 18.9059C15.2618 18.9026 15.3568 18.8987 15.4505 18.8987C15.5415 18.8987 15.6268 18.9026 15.7121 18.9059V18.8649H15.7093C15.6422 18.8653 15.5957 18.8389 15.5717 18.7809C15.5461 18.7212 15.5222 18.6482 15.4993 18.5794L15.1382 17.551C15.1323 17.5354 15.1265 17.5174 15.1214 17.5036C15.1198 17.5017 15.1201 17.5017 15.1185 17.5017H15.115C15.1109 17.5017 15.1086 17.5029 15.1036 17.5042C15.0658 17.529 14.9871 17.5675 14.929 17.583C14.9169 17.6574 14.8817 17.7555 14.8561 17.8284L14.5424 18.731C14.5125 18.8163 14.4437 18.865 14.364 18.8649H14.3609V18.9059C14.4281 18.9026 14.4961 18.8987 14.5641 18.8987C14.6398 18.8987 14.7173 18.9026 14.7921 18.9059V18.8649H14.7795C14.7157 18.8641 14.6265 18.8569 14.6241 18.7874C14.6242 18.7482 14.6483 18.6978 14.6674 18.6314L14.676 18.6341L14.6674 18.6312L14.732 18.421H15.1891L15.2678 18.6546C15.2898 18.7178 15.3077 18.7702 15.3077 18.799C15.3049 18.8594 15.2221 18.8637 15.1777 18.8649H15.1646V18.9059ZM14.7638 18.3277L14.9516 17.7541H14.9622H14.9681L15.1541 18.3277H14.7638ZM14.7873 18.3106H15.1305L14.9599 17.7836L14.7873 18.3106ZM15.8071 17.6406C15.6599 17.6406 15.6542 17.6761 15.6246 17.8195H15.5657C15.5734 17.7646 15.5833 17.7096 15.5895 17.6523C15.5974 17.5973 15.6009 17.5424 15.6009 17.4854H15.6482C15.6639 17.5445 15.7131 17.5424 15.7657 17.5424H16.7778C16.8303 17.5424 16.8793 17.5406 16.8833 17.4814L16.9302 17.4893C16.9228 17.5424 16.915 17.5955 16.909 17.6486C16.9048 17.7017 16.9048 17.7549 16.9048 17.8078L16.8461 17.8297C16.8424 17.757 16.8326 17.6406 16.7012 17.6406H16.3796V18.687C16.3796 18.8386 16.4484 18.8559 16.5422 18.8559H16.5794V18.9152C16.503 18.9152 16.366 18.9074 16.26 18.9074C16.1425 18.9074 16.005 18.9152 15.9286 18.9152V18.8559H15.9657C16.0737 18.8559 16.1288 18.8462 16.1288 18.691V17.6406H15.8071Z" fill="#211E1F"/>
<path d="M16.5796 18.9235C16.5026 18.9235 16.3653 18.9155 16.2601 18.9155C16.1429 18.9155 16.0056 18.9235 15.9287 18.9235H15.9201V18.8474H15.9658C16.0739 18.8448 16.1173 18.8434 16.1201 18.691L16.1197 17.6492H15.8072V17.6318H16.137V18.691C16.137 18.8488 16.0735 18.8643 15.9658 18.8646H15.937V18.9067C16.0146 18.9059 16.1463 18.8988 16.2601 18.8988C16.3625 18.8988 16.4935 18.9059 16.571 18.9067V18.8647H16.5421C16.4478 18.8643 16.3714 18.8415 16.3712 18.687V17.6318H16.7013C16.8329 17.6324 16.8501 17.7446 16.8538 17.8175L16.8966 17.8018C16.8966 17.7506 16.8968 17.6992 16.9006 17.6477C16.906 17.597 16.9133 17.5466 16.9206 17.4965L16.8909 17.4914C16.882 17.5486 16.8266 17.5518 16.7778 17.551H15.7559C15.7097 17.5515 15.6597 17.5488 15.6418 17.4936H15.6098C15.6095 17.5471 15.6055 17.6004 15.5978 17.6534C15.5926 17.7075 15.5829 17.7596 15.5757 17.8113H15.6177C15.6437 17.6742 15.6606 17.6298 15.8072 17.6318V17.6492C15.6618 17.6516 15.6651 17.6763 15.633 17.8217L15.6315 17.8283H15.5559L15.5571 17.8185C15.5653 17.763 15.5751 17.7082 15.5808 17.6513C15.5888 17.5964 15.5926 17.5418 15.5926 17.4854V17.4768H15.6546L15.6562 17.483C15.67 17.5326 15.7057 17.5328 15.7559 17.5337L15.7658 17.5339H16.7778C16.8319 17.5329 16.8714 17.532 16.8749 17.4808L16.8754 17.4714L16.8846 17.4733L16.9402 17.4821L16.9388 17.4906C16.9306 17.5433 16.9234 17.5962 16.9173 17.6492C16.9133 17.7015 16.9133 17.7548 16.9133 17.8078V17.8139L16.9078 17.8161L16.8382 17.8414L16.8379 17.8299C16.8329 17.7561 16.8251 17.6491 16.7013 17.6491H16.3881V18.687C16.3902 18.8353 16.4488 18.8455 16.5421 18.8474H16.588V18.9234H16.5796V18.9235ZM17.0028 18.8558H17.0302C17.101 18.8558 17.1751 18.8463 17.1751 18.7438V17.7137C17.1751 17.6111 17.101 17.6014 17.0303 17.6014H17.0028V17.5424C17.0793 17.5424 17.1968 17.5502 17.2926 17.5502C17.391 17.5502 17.5086 17.5424 17.6009 17.5424V17.6014H17.5733C17.5028 17.6014 17.4281 17.6111 17.4281 17.7137V18.7439C17.4281 18.8463 17.5028 18.8559 17.5733 18.8559H17.6009V18.9151C17.5066 18.9151 17.3889 18.9074 17.2911 18.9074C17.1949 18.9074 17.0793 18.9152 17.0028 18.9152V18.8558Z" fill="#211E1F"/>
<path d="M17.6008 18.9235C17.5061 18.9235 17.3887 18.9155 17.2909 18.9155C17.1951 18.9155 17.0793 18.9235 17.0027 18.9235H16.9941V18.8474H17.0301C17.101 18.8463 17.166 18.8402 17.1663 18.7439V17.7137C17.166 17.6177 17.101 17.6111 17.0301 17.6098H16.9941V17.534H17.0027C17.0793 17.534 17.197 17.5414 17.2925 17.5414C17.3903 17.5414 17.5079 17.534 17.6008 17.534H17.6091V17.6098H17.5733C17.5017 17.6111 17.4373 17.6177 17.4364 17.7137V18.7439C17.4373 18.8402 17.5017 18.8463 17.5733 18.8474H17.6091V18.9234H17.6008V18.9235ZM17.592 18.9063V18.8647H17.5733C17.503 18.8647 17.4198 18.8523 17.4198 18.7439V17.7137C17.4198 17.605 17.503 17.5927 17.5733 17.5927H17.592V17.551C17.5014 17.5515 17.3881 17.5586 17.2925 17.5586C17.1997 17.5586 17.0873 17.5515 17.0113 17.551V17.5927H17.0302C17.0999 17.5927 17.1834 17.605 17.1837 17.7137V18.7439C17.1834 18.8523 17.0999 18.8647 17.0302 18.8647H17.0113V18.9063C17.0869 18.9055 17.1978 18.8988 17.2909 18.8988C17.386 18.8988 17.4995 18.9059 17.5919 18.9063H17.592ZM18.3826 17.513C18.8005 17.513 19.1337 17.7729 19.1337 18.1916C19.1337 18.644 18.8102 18.9446 18.3929 18.9446C17.9768 18.9446 17.6594 18.6614 17.6594 18.2386C17.6594 17.8297 17.9749 17.513 18.3826 17.513ZM18.4122 18.8581C18.7927 18.8581 18.8589 18.5215 18.8589 18.2348C18.8589 17.9474 18.7045 17.5994 18.3789 17.5994C18.0357 17.5994 17.9338 17.9062 17.9338 18.1695C17.9338 18.5215 18.0945 18.8581 18.4122 18.8581Z" fill="#211E1F"/>
<path d="M17.6509 18.2386C17.6517 17.825 17.9709 17.505 18.3827 17.5044V17.5213C17.9798 17.5213 17.6678 17.8339 17.6675 18.2386C17.6684 18.6567 17.9813 18.9357 18.393 18.9358C18.8062 18.9357 19.1251 18.6392 19.1258 18.1912C19.1254 17.7778 18.7972 17.5218 18.3827 17.5213V17.5044C18.8039 17.5046 19.1415 17.7671 19.1424 18.1912C19.142 18.6483 18.8143 18.9522 18.393 18.953C17.9737 18.9522 17.6517 18.6661 17.6509 18.2386V18.2386ZM17.9255 18.1695C17.9261 17.905 18.0291 17.5906 18.3791 17.5906C18.7119 17.5914 18.8674 17.9459 18.8679 18.2348C18.8673 18.5216 18.8 18.8662 18.4126 18.8662V18.8496C18.7854 18.8491 18.8499 18.5216 18.8509 18.2348C18.8509 17.9498 18.6978 17.6084 18.3791 17.608C18.0427 17.6084 17.9431 17.9076 17.9426 18.1695C17.9428 18.5198 18.102 18.8488 18.4126 18.8496V18.8662C18.087 18.8658 17.9261 18.5236 17.9255 18.1694V18.1695ZM20.4551 18.5276L20.4591 18.5238V17.7864C20.4591 17.625 20.3471 17.6015 20.2882 17.6015H20.2458V17.5424C20.3377 17.5424 20.4278 17.5502 20.5197 17.5502C20.6003 17.5502 20.6806 17.5424 20.7612 17.5424V17.6015H20.7316C20.6494 17.6015 20.5571 17.6171 20.5571 17.8511V18.7462C20.5571 18.8149 20.559 18.8836 20.569 18.9446H20.4946L19.4846 17.8158V18.626C19.4846 18.7972 19.5178 18.8559 19.6687 18.8559H19.7023V18.9152C19.6178 18.9152 19.5338 18.9074 19.4494 18.9074C19.3612 18.9074 19.2708 18.9152 19.1826 18.9152V18.8559H19.2102C19.3457 18.8559 19.3863 18.7638 19.3863 18.6066V17.7782C19.3863 17.6682 19.2966 17.6014 19.2081 17.6014H19.1825V17.5425C19.257 17.5425 19.3336 17.5502 19.4079 17.5502C19.4668 17.5502 19.5235 17.5425 19.5826 17.5425L20.4551 18.5276Z" fill="#211E1F"/>
<path d="M20.5689 18.953L20.4878 18.9502L19.493 17.8379V18.6261C19.4951 18.797 19.521 18.8454 19.6683 18.8472H19.7107V18.9236H19.7022C19.6172 18.9236 19.533 18.9156 19.4493 18.9156C19.3613 18.9156 19.2713 18.9236 19.1822 18.9236H19.1741V18.8472H19.21C19.3393 18.8468 19.3764 18.7634 19.378 18.6066V17.7782C19.3778 17.6735 19.2922 17.61 19.2079 17.6098H19.1741V17.534H19.1822C19.2574 17.534 19.3338 17.5415 19.4078 17.5415C19.466 17.5415 19.5226 17.534 19.5889 17.5369L20.4503 18.5098V17.7866C20.4498 17.6301 20.3454 17.6112 20.2879 17.6098H20.2365V17.5341H20.2453C20.3376 17.5341 20.428 17.5416 20.5193 17.5416C20.5998 17.5416 20.6797 17.5341 20.761 17.5341H20.7694V17.6098H20.7314C20.6507 17.6122 20.5673 17.6195 20.5656 17.8512V18.7461C20.5656 18.8148 20.5671 18.8834 20.5766 18.9435L20.5782 18.953H20.5689ZM20.4945 18.9358H20.5586C20.55 18.8768 20.5486 18.8114 20.5486 18.746V17.8512C20.5486 17.6147 20.6474 17.5934 20.7314 17.5926H20.7526V17.551C20.6753 17.5516 20.5978 17.5587 20.5194 17.5587C20.4302 17.5587 20.3424 17.5516 20.2537 17.551V17.5926H20.2881C20.3489 17.5934 20.4671 17.6202 20.4671 17.7866L20.465 18.5297L20.4613 18.5337L20.455 18.5401L19.5824 17.5511C19.5246 17.5511 19.4674 17.5587 19.4078 17.5587C19.3357 17.5587 19.2621 17.5516 19.1907 17.5511V17.5927H19.208C19.3 17.5934 19.3948 17.663 19.3948 17.7782V18.6066C19.3948 18.7638 19.351 18.8644 19.21 18.865L19.1907 18.8648V18.9064C19.2758 18.906 19.3631 18.8989 19.4493 18.8989C19.531 18.8989 19.6122 18.906 19.6937 18.9064V18.865H19.6683C19.5145 18.8648 19.476 18.797 19.476 18.6261V17.7936L20.4944 18.9358H20.4945ZM20.4504 18.5238V18.5231L20.4488 18.5216L20.4504 18.5238ZM21.0761 18.6339C21.0569 18.7006 21.0331 18.7522 21.0331 18.7872C21.0331 18.8464 21.1157 18.856 21.18 18.856H21.2018V18.9152C21.1228 18.9105 21.0436 18.9079 20.9645 18.9074C20.8936 18.9074 20.8234 18.911 20.753 18.9153V18.8559H20.7642C20.841 18.8559 20.906 18.8108 20.935 18.7281L21.249 17.8257C21.2743 17.7529 21.3098 17.6545 21.3213 17.5817C21.3835 17.5594 21.4433 17.5311 21.5 17.4972C21.5056 17.4952 21.5096 17.4931 21.5155 17.4931C21.5214 17.4931 21.525 17.4931 21.529 17.4993C21.535 17.5148 21.5411 17.5326 21.547 17.5483L21.9075 18.577C21.931 18.6457 21.9544 18.7184 21.9802 18.7775C22.0038 18.8326 22.045 18.8559 22.1095 18.8559H22.1215V18.9153C22.0313 18.9105 21.941 18.9079 21.8506 18.9075C21.7526 18.908 21.6545 18.9106 21.5566 18.9153V18.8559H21.5783C21.6231 18.8559 21.7 18.8483 21.7 18.7991C21.7 18.7735 21.6822 18.7206 21.6603 18.6574L21.5842 18.4293H21.139L21.0761 18.634V18.6339ZM21.3627 17.7627H21.3587L21.1762 18.3193H21.5431L21.3627 17.7627Z" fill="#211E1F"/>
<path d="M22.1205 18.9235C22.0323 18.92 21.9442 18.9156 21.8505 18.9156C21.755 18.9156 21.6569 18.92 21.5568 18.9236L21.5481 18.9241V18.8474H21.5778C21.6234 18.8474 21.6911 18.8368 21.6912 18.799C21.6916 18.7766 21.674 18.723 21.6521 18.6601L21.5776 18.4377H21.1448L21.0841 18.6364C21.0646 18.7038 21.0412 18.7554 21.0416 18.7872C21.0416 18.8354 21.115 18.8474 21.1799 18.8474H21.2098V18.9241L21.201 18.9235C21.1226 18.92 21.0424 18.9156 20.9644 18.9156C20.8941 18.9156 20.8236 18.92 20.7529 18.9236L20.7444 18.9241V18.8474H20.7641C20.8373 18.8472 20.8985 18.805 20.927 18.7253L21.2408 17.8228C21.2658 17.7498 21.3011 17.6518 21.3185 17.5737C21.3801 17.5522 21.4589 17.513 21.4969 17.489C21.5021 17.4872 21.5073 17.485 21.5153 17.485C21.5197 17.4845 21.524 17.4854 21.5279 17.4874C21.5317 17.4894 21.5349 17.4925 21.5369 17.4963C21.5427 17.5118 21.5485 17.5296 21.5549 17.5456L21.9155 18.5741C21.9389 18.643 21.9625 18.7157 21.9878 18.7742C22.0109 18.8263 22.0466 18.8469 22.1091 18.8474H22.1295V18.9241L22.1205 18.9235ZM21.5649 18.9062C21.6618 18.9026 21.7573 18.8987 21.8505 18.8987C21.9417 18.8987 22.0273 18.9026 22.1127 18.9059L22.1124 18.8649H22.1092C22.0428 18.865 21.9965 18.8389 21.9721 18.7809C21.9463 18.7212 21.9229 18.6482 21.8995 18.5796L21.5387 17.551C21.5328 17.5354 21.5269 17.5174 21.5221 17.5042C21.5205 17.5017 21.5206 17.5017 21.5191 17.5017H21.5154C21.5113 17.5017 21.5091 17.503 21.5044 17.5044C21.4662 17.5286 21.3876 17.5678 21.3296 17.583C21.3174 17.6574 21.2818 17.7554 21.2565 17.8284L20.9426 18.731C20.9129 18.8163 20.8443 18.865 20.7641 18.8649H20.7613V18.9059C20.8287 18.9026 20.8961 18.8987 20.9644 18.8987C21.0404 18.8987 21.1177 18.9026 21.1932 18.9059V18.8649H21.1798C21.1161 18.8641 21.0266 18.8571 21.0243 18.7872C21.0247 18.7482 21.0491 18.6982 21.068 18.6314L21.076 18.6341L21.068 18.6312L21.1325 18.421H21.5898L21.6684 18.6546C21.69 18.7179 21.7078 18.7702 21.7078 18.799C21.7049 18.8594 21.6227 18.8637 21.5778 18.8649H21.5649L21.5649 18.9062ZM21.1644 18.3275L21.3524 17.7541H21.3626H21.3687L21.5541 18.3275H21.1644ZM21.1879 18.3106H21.5308L21.3603 17.7839L21.1879 18.3106ZM21.3545 17.7651L21.3584 17.7636L21.3544 17.7651H21.3545ZM22.6154 18.7224C22.6154 18.8011 22.6698 18.8246 22.7326 18.8326C22.813 18.8386 22.9013 18.8386 22.9918 18.8286C23.0739 18.8187 23.1446 18.7715 23.1797 18.7224C23.2109 18.679 23.2286 18.624 23.2405 18.5808H23.2973C23.2758 18.6928 23.2483 18.8032 23.2247 18.9152C23.0525 18.9152 22.8797 18.9074 22.7073 18.9074C22.5345 18.9074 22.3623 18.9152 22.1897 18.9152V18.8559H22.2167C22.2877 18.8559 22.3644 18.8463 22.3644 18.7243V17.7137C22.3644 17.6111 22.2876 17.6015 22.2167 17.6015H22.1897V17.5425C22.2933 17.5425 22.3955 17.5502 22.4992 17.5502C22.5995 17.5502 22.6974 17.5425 22.7975 17.5425V17.6015H22.7481C22.6739 17.6015 22.6154 17.6037 22.6154 17.7076V18.7224Z" fill="#211E1F"/>
<path d="M23.2248 18.9235C23.052 18.9235 22.8795 18.9157 22.7075 18.9157C22.5348 18.9157 22.3623 18.9235 22.1895 18.9235H22.1812V18.8475H22.2168C22.288 18.8458 22.3551 18.841 22.3559 18.7243V17.7134C22.3551 17.6178 22.2883 17.6112 22.2168 17.6098H22.1812V17.534H22.1895C22.2937 17.534 22.3959 17.5415 22.4994 17.5415C22.599 17.5415 22.6968 17.534 22.7976 17.534H22.8056V17.6098H22.7484C22.6724 17.612 22.6251 17.6085 22.6236 17.7076V18.7225C22.6241 18.7957 22.672 18.8154 22.7332 18.8241C22.7678 18.8265 22.8041 18.828 22.842 18.828C22.89 18.828 22.9398 18.8257 22.9904 18.8202C23.0704 18.8108 23.1392 18.7646 23.1728 18.7177C23.2031 18.6757 23.2204 18.6217 23.2321 18.5787L23.234 18.5722H23.3077L23.306 18.5826C23.2838 18.695 23.2569 18.805 23.2332 18.9169L23.2316 18.9236L23.2248 18.9235ZM23.2177 18.9064C23.2404 18.7998 23.2661 18.6954 23.2872 18.5891H23.2469C23.2347 18.6319 23.2173 18.6846 23.1864 18.7276C23.1499 18.7786 23.0772 18.8266 22.9923 18.8371C22.9409 18.8424 22.89 18.8451 22.8419 18.8451C22.804 18.8451 22.7672 18.8434 22.7316 18.8409C22.6679 18.8338 22.606 18.8065 22.6063 18.7225V17.7075C22.6063 17.5983 22.6752 17.5927 22.7484 17.5927H22.7889V17.551C22.6923 17.5515 22.5971 17.5587 22.4994 17.5587C22.3979 17.5587 22.2986 17.5515 22.198 17.551V17.5927H22.2168C22.2868 17.5927 22.3724 17.605 22.3724 17.7132V18.7242C22.3724 18.8514 22.2872 18.8647 22.2168 18.8647H22.198V18.9063C22.3676 18.9062 22.5371 18.8988 22.7075 18.8988C22.8779 18.8988 23.048 18.9062 23.2177 18.9063V18.9064ZM23.2736 17.4866C23.3917 17.4866 23.48 17.5777 23.48 17.6943C23.48 17.8106 23.3917 17.9007 23.2736 17.9007C23.1554 17.9007 23.0671 17.8106 23.0671 17.6943C23.0671 17.5777 23.1554 17.4866 23.2736 17.4866ZM23.2736 17.8622C23.3659 17.8622 23.4369 17.7831 23.4369 17.6943C23.4369 17.605 23.367 17.5253 23.2736 17.5253C23.1808 17.5253 23.1097 17.605 23.1097 17.6943C23.1097 17.7831 23.1808 17.8622 23.2736 17.8622ZM23.1708 17.8034V17.7932C23.1962 17.7897 23.2008 17.7905 23.2008 17.7746V17.6214C23.2008 17.5998 23.1984 17.5925 23.1717 17.5936V17.5831H23.2773C23.3138 17.5831 23.3472 17.6004 23.3472 17.6381C23.3472 17.6689 23.3268 17.6917 23.2984 17.7005L23.3322 17.7479C23.348 17.7695 23.3659 17.7897 23.3777 17.7967V17.8034H23.3375C23.3182 17.8034 23.3013 17.7626 23.2632 17.708H23.2404V17.7768C23.2404 17.7904 23.2452 17.7896 23.2706 17.7932V17.8034H23.1708ZM23.2404 17.6943H23.2648C23.2914 17.6943 23.3039 17.6741 23.3039 17.6415C23.3039 17.6085 23.2846 17.5969 23.2634 17.5969H23.2404V17.6943Z" fill="#211E1F"/>
<path d="M16.021 13.993C19.0005 14.0074 21.72 11.5501 21.72 8.56072C21.72 5.29168 19.0005 3.032 16.021 3.03312H13.4568C10.4417 3.032 7.95996 5.29232 7.95996 8.56072C7.95996 11.5507 10.4417 14.0074 13.4568 13.993H16.021Z" fill="#0079BE"/>
<path d="M13.4691 3.48608C10.7139 3.48696 8.48135 5.73224 8.48071 8.50336C8.48135 11.2739 10.7139 13.519 13.4691 13.5198C16.225 13.519 18.458 11.2739 18.4583 8.50336C18.4579 5.73216 16.225 3.48696 13.4691 3.48608ZM10.3071 8.50336C10.3097 7.1492 11.1509 5.99456 12.337 5.53568V11.4703C11.1509 11.0117 10.3097 9.8576 10.3071 8.50336ZM14.6007 11.4716V5.53552C15.7874 5.99328 16.6298 7.14864 16.632 8.50344C16.6321 9.14528 16.4381 9.77216 16.0757 10.3018C15.7132 10.8315 15.1991 11.2393 14.6008 11.4717L14.6007 11.4716Z" fill="white"/>
<path d="M16.021 13.993C19.0005 14.0074 21.72 11.5501 21.72 8.56072C21.72 5.29168 19.0005 3.032 16.021 3.03312H13.4568C10.4417 3.032 7.95996 5.29232 7.95996 8.56072C7.95996 11.5507 10.4417 14.0074 13.4568 13.993H16.021Z" fill="#0079BE"/>
<path d="M13.4691 3.48608C10.7139 3.48696 8.48135 5.73224 8.48071 8.50336C8.48135 11.2739 10.7139 13.519 13.4691 13.5198C16.225 13.519 18.458 11.2739 18.4583 8.50336C18.4579 5.73216 16.225 3.48696 13.4691 3.48608ZM10.3071 8.50336C10.3097 7.1492 11.1509 5.99456 12.337 5.53568V11.4703C11.1509 11.0117 10.3097 9.8576 10.3071 8.50336ZM14.6007 11.4716V5.53552C15.7874 5.99328 16.6298 7.14864 16.632 8.50344C16.6321 9.14528 16.4381 9.77216 16.0757 10.3018C15.7132 10.8315 15.1991 11.2393 14.6008 11.4717L14.6007 11.4716Z" fill="white"/>
<path fill-rule="evenodd" clip-rule="evenodd" d="M3.4 0.953125H26.6C27.928 0.953125 29 2.02512 29 3.35312V18.5531C29 19.8811 27.928 20.9531 26.6 20.9531H3.4C2.072 20.9531 1 19.8811 1 18.5531V3.35312C1 2.02512 2.072 0.953125 3.4 0.953125ZM28.2 3.35312C28.2 2.47312 27.48 1.75312 26.6 1.75312H3.4C2.52 1.75312 1.8 2.47312 1.8 3.35312V18.5531C1.8 19.4331 2.52 20.1531 3.4 20.1531H26.6C27.48 20.1531 28.2 19.4331 28.2 18.5531V3.35312Z" fill="#E7E7E7"/>
</g>
<defs>
<clipPath id="clip0_0_648">
<rect width="28" height="20" fill="white" transform="translate(1 0.953125)"/>
</clipPath>
</defs>
</svg>
