<svg width="30" height="21" viewBox="0 0 30 21" fill="none" xmlns="http://www.w3.org/2000/svg">
<g clip-path="url(#clip0_0_632)">
<path d="M25.7915 1.35313H3.31009C1.97727 1.35313 0.901367 2.42513 0.901367 3.75313V18.1531C0.901367 19.4811 1.97727 20.5531 3.31009 20.5531H25.7915C27.1244 20.5531 28.2003 19.4811 28.2003 18.1531V3.75313C28.2003 2.42513 27.1244 1.35313 25.7915 1.35313Z" fill="url(#paint0_radial_0_632)"/>
<path d="M26.1931 1.75313C27.0763 1.75313 27.7989 2.47313 27.7989 3.35313V18.5531C27.7989 19.4331 27.0763 20.1531 26.1931 20.1531H2.90873C2.02553 20.1531 1.30291 19.4331 1.30291 18.5531V3.35313C1.30291 2.47313 2.02553 1.75313 2.90873 1.75313H26.1931ZM26.1931 0.953125H2.90873C1.5759 0.953125 0.5 2.02513 0.5 3.35313V18.5531C0.5 19.8811 1.5759 20.9531 2.90873 20.9531H26.1931C27.5259 20.9531 28.6018 19.8811 28.6018 18.5531V3.35313C28.6018 2.02513 27.5259 0.953125 26.1931 0.953125Z" fill="#E7E7E7"/>
<path d="M6.07227 11.2331H7.45327L6.76277 9.55313L6.07227 11.2331Z" fill="white"/>
<path d="M16.8875 9.71313V10.4811H19.1195V11.3451H16.8875V12.1931H19.3845L20.5407 10.9371L19.4407 9.71313H16.8875Z" fill="white"/>
<path d="M25.7275 7.99313H22.0662L21.2312 8.89713L20.4524 7.99313H15.7553H15.1772H12.889L12.2225 9.51313L11.5401 7.99313H8.41675V8.69713L8.0715 7.99313H5.42993L2.86865 13.8971H5.92774L6.32116 12.9531H7.1883L7.5737 13.8971H10.978V13.1851L11.2831 13.9131H13.0495L13.3546 13.1851V13.9131H15.1371H20.3319L21.191 12.9931L22.01 13.9131H25.607L22.9574 10.9771L25.7275 7.99313ZM15.1532 13.0571H14.1174V9.73713L12.6481 13.0571H11.7408L10.2715 9.73713V13.0571H8.208L7.8226 12.1131H5.70292L5.3095 13.0571H4.20148L6.01606 8.82513H7.52553L9.25178 12.8331V8.82513H10.9058L12.2386 11.6971L13.459 8.82513H15.1532V13.0571ZM23.7684 13.0731H22.4516L21.1991 11.6731L19.9064 13.0731H15.8838V8.83313H19.9706L21.2232 10.2251L22.5158 8.83313H23.8487L21.8735 10.9531L23.7684 13.0731Z" fill="white"/>
</g>
<defs>
<radialGradient id="paint0_radial_0_632" cx="0" cy="0" r="1" gradientUnits="userSpaceOnUse" gradientTransform="translate(319.578 51.4723) scale(2618.71 2618.71)">
<stop stop-color="#9DD5F6"/>
<stop offset="0.0711" stop-color="#98D3F5"/>
<stop offset="0.1575" stop-color="#89CEF3"/>
<stop offset="0.2516" stop-color="#70C6EF"/>
<stop offset="0.3514" stop-color="#4EBBEA"/>
<stop offset="0.4546" stop-color="#23ADE3"/>
<stop offset="0.5" stop-color="#0DA6E0"/>
<stop offset="1" stop-color="#2E77BC"/>
</radialGradient>
<clipPath id="clip0_0_632">
<rect width="29" height="20" fill="white" transform="translate(0.5 0.953125)"/>
</clipPath>
</defs>
</svg>
