<svg width="30" height="21" viewBox="0 0 30 21" fill="none" xmlns="http://www.w3.org/2000/svg">
<g clip-path="url(#clip0_0_614)">
<path d="M26.1931 20.9531H2.90873C1.5759 20.9531 0.5 19.8811 0.5 18.5531V3.35313C0.5 2.02513 1.5759 0.953125 2.90873 0.953125H26.1931C27.5259 0.953125 28.6018 2.02513 28.6018 3.35313V18.5531C28.6018 19.8811 27.5259 20.9531 26.1931 20.9531Z" fill="#F8F8F8"/>
<path d="M26.1931 1.75313C27.0763 1.75313 27.7989 2.47313 27.7989 3.35313V18.5531C27.7989 19.4331 27.0763 20.1531 26.1931 20.1531H2.90873C2.02553 20.1531 1.30291 19.4331 1.30291 18.5531V3.35313C1.30291 2.47313 2.02553 1.75313 2.90873 1.75313H26.1931ZM26.1931 0.953125H2.90873C1.5759 0.953125 0.5 2.02513 0.5 3.35313V18.5531C0.5 19.8811 1.5759 20.9531 2.90873 20.9531H26.1931C27.5259 20.9531 28.6018 19.8811 28.6018 18.5531V3.35313C28.6018 2.02513 27.5259 0.953125 26.1931 0.953125Z" fill="#E7E7E7"/>
<path d="M22.84 10.9543C22.84 13.7835 20.5469 16.0682 17.7172 16.0682C14.8875 16.0682 12.5847 13.7835 12.5847 10.9543C12.5847 8.12512 14.8778 5.83067 17.7075 5.83067C20.5469 5.83067 22.84 8.12512 22.84 10.9543Z" fill="#F79F1A"/>
<path d="M16.517 10.9543C16.517 13.7835 14.2239 16.0682 11.3942 16.0682C8.56452 16.0682 6.27148 13.7738 6.27148 10.9543C6.27148 8.13484 8.56452 5.83067 11.3942 5.83067C14.2239 5.83067 16.517 8.12512 16.517 10.9543Z" fill="#EA001B"/>
<path d="M14.546 6.92929C13.3458 7.86262 12.5847 9.32096 12.5847 10.9543C12.5847 12.5876 13.3556 14.046 14.546 14.9793C15.7462 14.046 16.5073 12.5876 16.5073 10.9543C16.5073 9.32096 15.7462 7.86262 14.546 6.92929Z" fill="#FF5F01"/>
</g>
<defs>
<clipPath id="clip0_0_614">
<rect width="29" height="20" fill="white" transform="translate(0.5 0.953125)"/>
</clipPath>
</defs>
</svg>
