<svg width="30" height="21" viewBox="0 0 30 21" fill="none" xmlns="http://www.w3.org/2000/svg">
<g clip-path="url(#clip0_0_601)">
<path d="M26.1931 20.9531H2.90873C1.5759 20.9531 0.5 19.8811 0.5 18.5531V3.35313C0.5 2.02513 1.5759 0.953125 2.90873 0.953125H26.1931C27.5259 0.953125 28.6018 2.02513 28.6018 3.35313V18.5531C28.6018 19.8811 27.5259 20.9531 26.1931 20.9531Z" fill="#F8F8F8"/>
<path d="M26.1931 1.75313C27.0763 1.75313 27.7989 2.47313 27.7989 3.35313V18.5531C27.7989 19.4331 27.0763 20.1531 26.1931 20.1531H2.90873C2.02553 20.1531 1.30291 19.4331 1.30291 18.5531V3.35313C1.30291 2.47313 2.02553 1.75313 2.90873 1.75313H26.1931ZM26.1931 0.953125H2.90873C1.5759 0.953125 0.5 2.02513 0.5 3.35313V18.5531C0.5 19.8811 1.5759 20.9531 2.90873 20.9531H26.1931C27.5259 20.9531 28.6018 19.8811 28.6018 18.5531V3.35313C28.6018 2.02513 27.5259 0.953125 26.1931 0.953125Z" fill="#E7E7E7"/>
<path d="M12.2948 7.52113L10.8175 14.3531H12.5999L14.0773 7.52113H12.2948ZM23.7764 7.52113H22.2589C21.9217 7.52113 21.6246 7.72113 21.5042 8.01713L18.8225 14.3531H20.6932L21.0626 13.3291H23.3509L23.5677 14.3531H25.2217L23.7764 7.52113ZM21.5845 11.9291L22.5159 9.36913L23.0538 11.9291H21.5845ZM9.65325 7.52113L7.79853 12.1691L7.0438 8.21713C6.94745 7.76913 6.61022 7.51313 6.2168 7.51313H3.19786L3.15771 7.71313C3.78398 7.84913 4.48251 8.06513 4.91609 8.28913C5.17302 8.44113 5.25331 8.56113 5.3336 8.89713L6.75475 14.3611H8.63355L11.5321 7.52913H9.65325V7.52113ZM16.4218 9.42513C16.4218 9.18513 16.6626 8.91313 17.1765 8.85713C17.4334 8.83313 18.14 8.80113 18.9349 9.16913L19.248 7.71313C18.8144 7.56113 18.2604 7.41713 17.586 7.41713C15.8276 7.41713 14.5831 8.34513 14.5671 9.68113C14.551 10.6651 15.4583 11.2171 16.1247 11.5451C16.8152 11.8811 17.0561 12.0971 17.048 12.3931C17.048 12.8491 16.494 13.0571 15.9802 13.0651C15.0889 13.0811 14.559 12.8251 14.1495 12.6331L13.8284 14.1291C14.2459 14.3211 15.0167 14.4811 15.8196 14.4971C17.6984 14.4971 18.9188 13.5771 18.9349 12.1611C18.9188 10.3291 16.4057 10.2171 16.4218 9.42513Z" fill="#0F2496"/>
</g>
<defs>
<clipPath id="clip0_0_601">
<rect width="29" height="20" fill="white" transform="translate(0.5 0.953125)"/>
</clipPath>
</defs>
</svg>
